<svg width="616" height="236" viewBox="0 0 616 236" fill="none" xmlns="http://www.w3.org/2000/svg">
<path d="M546.2 137.8C543.9 137.8 541.6 138 539.3 138.5C538.4 106 511.3 80.5 478.9 81.4C453.7 82.1 431.8 98.8 424.4 122.9C422.1 122.5 419.8 122.3 417.5 122.3C394.6 122.3 375.9 140.8 375.9 163.8C375.9 186.7 394.4 205.4 417.4 205.4H546.2C564.9 205.1 579.7 189.7 579.4 171C579.1 152.8 564.4 138.1 546.2 137.8Z" fill="#003682"/>
<path d="M364.7 206.4C363.4 206.4 362.2 206.3 360.9 206C346.3 203.1 337.6 184 337.6 155C337.6 103.3 324.4 63.5 298.5 36.7C276 13.5 244.7 1.2 207.8 1.2C182 1.2 157.1 10.9 137.7 28.5C119.3 45.2 108.8 66.4 108.8 86.7H107.9C107.9 66.1 118.5 44.7 137.1 27.8C156.7 10 181.8 0.199997 207.8 0.199997C244.9 0.199997 276.5 12.6 299.2 36C325.3 63 338.6 103 338.6 154.9C338.6 183.4 347 202.1 361.1 204.9C372.2 207.1 384.4 198.2 390.7 183.1C400.4 159.9 427.6 120.5 468.1 120.5C517.3 120.5 546.7 152.1 546.7 205.1H545.8C545.8 177.4 538.2 155.9 523.1 141.3C509.7 128.3 490.7 121.4 468.2 121.4C428.2 121.4 401.3 160.4 391.7 183.4C385.7 197.7 375.2 206.4 364.7 206.4Z" fill="#FF6633"/>
<path d="M363.6 207.8C362.2 207.8 360.9 207.7 359.5 207.4C345.5 204.4 336.9 186.1 336.4 158.7C335.5 111.1 323.3 73.3 300.1 46.2C279.1 21.7 248.5 8.09999 211.6 6.99999C185.3 6.19999 159.2 16.2 140 34.5C124.2 49.6 114.9 68.7 114.7 86.9H113.8C114.1 68.5 123.4 49.1 139.4 33.9C158.8 15.4 185.1 5.29999 211.7 6.09999C248.9 7.29999 279.7 21 300.9 45.7C324.2 73 336.5 111.1 337.4 158.8C337.8 185.8 346.2 203.7 359.7 206.6C370.7 209 382.6 200.9 389.5 186.5C391.7 181.8 400.2 165.2 414.6 150.6C430.1 134.8 447.2 126.6 465.4 126.1C468 126 470.2 126 472.4 126.1C492.5 126.8 509.5 133.7 521.7 146C535.4 159.9 542.5 179.9 542.8 205.4H541.9C541.6 180.1 534.6 160.3 521 146.6C509 134.4 492.2 127.6 472.3 126.9C470.2 126.8 467.9 126.8 465.4 126.9C447.5 127.4 430.7 135.5 415.3 151.1C401 165.6 392.6 182.1 390.4 186.8C384.1 199.8 373.7 207.8 363.6 207.8Z" fill="#FF6A34"/>
<path d="M362.5 209.2C361 209.2 359.6 209 358.2 208.7C351.7 207.2 336.6 199.7 335.2 162.2C333.6 117.2 321.6 80.4 299.4 52.8C280 28.7 251 14.8 215.5 12.5C190.1 10.8 164.8 19.7 145.9 36.8C130.3 51 121.1 69.2 120.5 86.8H119.6C120.1 68.9 129.5 50.4 145.3 36.1C164.4 18.8 190 9.79999 215.6 11.5C251.4 13.9 280.6 27.9 300.1 52.2C322.4 79.9 334.6 116.9 336.2 162.2C337.5 199 352.2 206.3 358.4 207.8C369 210.3 381 202.9 388.2 189.4C395.2 176.3 421.3 133.5 462.5 131.2C465.2 131 467.4 131 469.4 131C488.6 131 505.1 137.1 517.1 148.5C530.8 161.5 538.1 180.7 538.7 205.3H537.8C537.2 180.9 530 162 516.5 149.1C504.6 137.8 488.4 131.8 469.4 131.8C467.4 131.8 465.3 131.9 462.6 132C421.9 134.3 396.1 176.8 389.1 189.8C382.5 201.9 372.3 209.2 362.5 209.2Z" fill="#FF6E35"/>
<path d="M361.6 210.6C360 210.6 358.3 210.4 356.7 210C343.6 206.7 335.3 190.6 333.9 165.8C331.5 123.3 319.6 87.5 298.5 59.5C280.5 35.6 253.8 21.6 219.2 18C194.8 15.5 170.2 23.2 151.7 39.1C136.4 52.3 127.1 69.7 126.3 86.8H125.4C126.2 69.4 135.6 51.8 151.1 38.4C169.8 22.3 194.7 14.5 219.3 17.1C254.1 20.7 281 34.8 299.2 58.9C320.5 87.1 332.4 123.1 334.8 165.7C336.2 190.1 344.2 205.9 356.9 209C367.3 211.6 379.1 205.1 386.8 192.3C414.5 146.7 444.2 137.6 459.5 136.2C461.5 136 463.7 135.8 465.8 135.7C484.7 134.9 501.1 140.3 513.2 151.5C526.4 163.7 533.6 181.7 534.5 205H533.6C532.7 181.9 525.7 164.1 512.6 152.1C500.7 141.1 484.6 135.8 465.9 136.6C463.8 136.7 461.6 136.9 459.6 137C444.5 138.4 415.1 147.4 387.6 192.6C380.9 204.1 371.1 210.6 361.6 210.6Z" fill="#FE7335"/>
<path d="M360.7 212C358.9 212 357.2 211.8 355.4 211.3C348 209.3 335.2 201.2 332.7 169.4C329.6 129.5 317.8 94.8 297.7 66.2C281.2 42.7 256.1 28.4 223.1 23.6C199.7 20.2 175.8 26.7 157.6 41.5C142.5 53.7 133.3 70.3 132.2 86.9L131.3 86.8C132.4 69.9 141.7 53.2 157 40.8C175.4 25.9 199.5 19.3 223.2 22.7C256.5 27.5 281.8 42 298.4 65.7C318.6 94.5 330.5 129.3 333.6 169.4C335.4 192.2 343.4 207.2 355.6 210.5C365.7 213.2 377.5 207.3 385.6 195.5C408.1 162.8 432 144.7 456.8 141.6L457.4 141.5C459.2 141.3 461 141 462.8 140.9C480.8 139.3 497.2 144.1 509.1 154.4C522 165.6 529.4 183.1 530.6 205.2H529.7C528.6 183.4 521.2 166.1 508.5 155.1C496.8 144.9 480.6 140.2 462.9 141.8C461.1 142 459.3 142.2 457.5 142.4L456.9 142.5C432.4 145.6 408.7 163.6 386.4 196C379.5 206.1 369.8 212 360.7 212Z" fill="#FE7736"/>
<path d="M360 213.4C358 213.4 356 213.1 354.1 212.6C341.9 209.1 333.9 195 331.6 173C327.7 136 316.1 102.3 297 72.9C281.7 49.6 258.9 35.3 227 29.2C204.5 24.9 181.4 30.3 163.6 43.8C148.8 55.1 139.5 70.8 138.2 86.8L137.3 86.7C138.6 70.4 148 54.4 163 43C181 29.3 204.4 23.9 227.2 28.2C259.3 34.3 282.4 48.7 297.8 72.3C317 101.8 328.7 135.6 332.6 172.8C334.8 194.4 342.6 208.2 354.4 211.6C364.4 214.5 376 209.4 384.6 198.4L384.8 198.1C395.5 184.4 420.6 152.2 454.1 146.7L455.6 146.4C457 146.2 458.4 145.9 459.7 145.7C476.9 143.3 493 147.3 504.9 157C511 162 516 168.4 519.6 176C523.5 184.3 525.9 194 526.6 204.9L525.7 205C524.3 184.2 516.9 167.9 504.4 157.7C492.7 148.2 476.9 144.3 460 146.7C458.6 146.9 457.3 147.1 455.9 147.4L454.4 147.7C421.2 153.2 396.3 185.2 385.6 198.8L385.4 199.1C378 208.2 368.8 213.4 360 213.4Z" fill="#FE7B37"/>
<path d="M359.1 214.8C356.9 214.8 354.7 214.5 352.6 213.8C340.9 210.2 332.9 197 330.2 176.5C325.7 141.9 314.2 109.3 296 79.5C282.2 56.6 260.8 42 230.6 34.7C209.1 29.5 186.7 33.6 169.3 46C154.7 56.3 145.5 71.2 143.9 86.8L143 86.7C144.6 70.8 154 55.7 168.8 45.2C186.5 32.7 209.1 28.5 230.9 33.8C261.3 41.1 282.9 55.9 296.8 79C315 108.9 326.6 141.6 331.1 176.4C333.7 196.4 341.4 209.4 352.8 212.9C362.5 215.9 374.1 211.5 383.1 201.4C383.7 200.7 384.4 199.9 385.1 199.1C396.8 185.8 421.2 158.1 451.1 151.8C451.9 151.6 452.6 151.5 453.3 151.3C454.4 151.1 455.4 150.8 456.4 150.6C472.7 147.4 488.7 150.7 500.5 159.5C513.1 169 520.7 184.7 522.4 204.8L521.5 204.9C519.8 185.1 512.4 169.6 500 160.3C488.5 151.6 472.7 148.4 456.7 151.6C455.7 151.8 454.6 152 453.6 152.3C452.9 152.5 452.1 152.6 451.4 152.8C421.8 159 397.5 186.6 385.9 199.8C385.2 200.6 384.5 201.4 383.9 202.1C376.6 210.3 367.6 214.8 359.1 214.8Z" fill="#FE7F38"/>
<path d="M358.6 216.2C356.1 216.2 353.6 215.8 351.2 215C343.2 212.4 332.9 204.2 328.9 180C323.7 148.3 313 118.4 295.1 86.2C282.7 63.7 262.8 48.7 234.4 40.3C213.8 34.2 192.2 37.1 175.1 48.4C160.8 57.8 151.6 71.8 149.7 86.9L148.8 86.8C150.7 71.4 160.1 57.2 174.6 47.7C191.9 36.3 213.9 33.4 234.7 39.5C263.4 48 283.4 63.2 296 85.8C313.7 117.7 324.7 148.5 329.9 180C333.8 203.7 343.8 211.7 351.5 214.2C361.1 217.3 372.5 213.7 381.9 204.5C383.2 203.2 384.6 201.8 386.2 200.1C399.6 186.6 421.9 164 448.3 157C449.3 156.7 450.2 156.5 451.2 156.2C451.9 156 452.6 155.8 453.3 155.6C468.8 151.6 484.5 153.9 496.3 162.2C508.8 170.9 516.5 185.6 518.4 204.9L517.5 205C515.6 186.1 508 171.6 495.8 163C484.2 155 468.8 152.6 453.6 156.6C452.9 156.8 452.2 157 451.5 157.2C450.6 157.5 449.6 157.7 448.6 158C422.4 164.8 400.2 187.4 386.9 200.8C385.3 202.4 383.8 203.9 382.5 205.2C375.2 212.3 366.7 216.2 358.6 216.2Z" fill="#FD8338"/>
<path d="M358.1 217.7C355.3 217.7 352.5 217.3 349.9 216.4C342.2 213.8 332.2 205.9 327.8 183.8C320.6 148 306.9 117.8 294.4 93C283.1 70.6 265.3 55.7 238.3 46C218.6 38.9 197.7 40.7 181 50.8C167 59.2 157.8 72.4 155.7 87L154.8 86.9C157 72 166.4 58.6 180.6 50C197.6 39.8 218.8 38 238.7 45.2C265.9 55 283.9 70 295.3 92.7C307.8 117.5 321.6 147.8 328.8 183.7C333.1 205.4 342.9 213.1 350.3 215.6C359.7 218.9 371.1 215.9 380.8 207.6C382.9 205.8 385.3 203.6 388.1 201.1C401.9 188.6 422.7 169.7 445.7 162.4C446.7 162.1 447.6 161.7 448.6 161.4C449.2 161.2 449.8 161 450.4 160.8C464.9 156 480.5 157.5 492.2 164.9C504.6 172.8 512.4 186.6 514.6 204.9L513.7 205C511.5 187 503.9 173.4 491.7 165.7C480.2 158.4 464.9 156.9 450.7 161.7C450.1 161.9 449.5 162.1 448.9 162.3C448 162.6 447 163 446 163.3C423.2 170.6 402.5 189.4 388.8 201.8C386 204.3 383.6 206.5 381.5 208.3C374.1 214.4 365.8 217.7 358.1 217.7Z" fill="#FD8739"/>
<path d="M357.7 219.2C354.5 219.2 351.4 218.7 348.5 217.6C341.1 214.9 331.4 207.5 326.5 187.3C318.7 155 305.4 125.7 293.6 99.8L293.5 99.6C283.5 77.5 267.1 62.2 242 51.5C223.3 43.5 203.1 44 186.7 52.9C173 60.4 163.8 72.7 161.4 86.9L160.5 86.7C162.9 72.3 172.3 59.6 186.3 52C203 42.9 223.4 42.4 242.4 50.5C267.7 61.4 284.2 76.8 294.4 99.1L294.5 99.3C306.3 125.2 319.6 154.5 327.4 186.9C331.2 202.6 338.6 212.8 348.8 216.6C358.1 220 369.5 217.6 379.4 210.3C382.6 207.9 386.4 204.8 390.7 201.3C404.4 190.1 423.2 174.7 442.7 167.3C444 166.8 445.2 166.3 446.4 165.8L447.1 165.5C460.7 159.8 475.9 160.4 487.8 167.1C496.4 172 507.4 182.5 510.5 204.6L509.6 204.7C506.5 183 495.8 172.7 487.3 167.9C475.7 161.3 460.8 160.7 447.5 166.3L446.8 166.6C445.6 167.1 444.3 167.7 443 168.2C423.7 175.6 405 190.9 391.3 202.1C386.9 205.7 383.2 208.8 379.9 211.1C372.9 216.4 365.1 219.2 357.7 219.2Z" fill="#FD8C3A"/>
<path d="M357.7 220.8C354.1 220.8 350.5 220.2 347.2 218.9C337.1 215 329.5 205.3 325.3 190.9C318.7 168.2 309.7 146.9 301 126.3C298.1 119.4 295.4 112.9 292.7 106.3C281.1 77.7 260.4 64.5 245.8 57.1C228 48 208.6 47.3 192.5 55.2C179.1 61.7 169.9 73.3 167.3 87L166.4 86.8C169.1 72.8 178.5 61 192.2 54.4C208.5 46.4 228.3 47.1 246.3 56.3C261 63.8 281.9 77.2 293.6 106C296.3 112.6 299 119.1 301.9 125.9C310.6 146.5 319.6 167.9 326.2 190.6C330.3 204.8 337.7 214.3 347.6 218C356.9 221.5 368 219.9 378.2 213.5C383 210.5 388.8 206.2 395.5 201.2C408.3 191.7 424.3 179.8 439.9 172.6C440.9 172.1 441.9 171.6 442.9 171.1L444 170.5C456.5 164 471.6 163.7 483.5 169.7C492.1 174 503 183.6 506.5 204.6L505.6 204.8C502.2 184.1 491.5 174.8 483.1 170.6C471.5 164.8 456.7 165.1 444.5 171.4L443.4 172C442.4 172.5 441.4 173 440.4 173.5C424.9 180.7 409 192.5 396.2 202C389.5 207 383.7 211.3 378.8 214.4C371.9 218.6 364.6 220.8 357.7 220.8Z" fill="#FD903B"/>
<path d="M357.9 222.4C353.7 222.4 349.7 221.7 346 220.2C336.2 216.3 328.7 207.4 324.1 194.4C319.1 180 313.1 165.6 307.3 151.8C302 139.1 296.5 125.9 291.9 112.9C284.2 91.3 270.8 75.3 249.7 62.5C232.9 52.4 214.2 50.4 198.4 57.2C185.3 62.8 176.1 73.6 173.2 86.8L172.3 86.6C175.3 73.1 184.7 62 198.1 56.3C214.1 49.4 233.1 51.4 250.2 61.7C271.5 74.6 285.1 90.7 292.9 112.5C297.5 125.5 303 138.6 308.3 151.3C314.1 165.2 320 179.5 325.1 194C329.6 206.9 336.8 215.4 346.4 219.2C355.6 222.8 366.7 221.8 377.1 216.4C384.5 212.5 393.9 206 403.8 199.2C414.8 191.6 426.2 183.8 437.2 177.7C438.2 177.1 439.2 176.5 440.2 175.9L441 175.4C452.6 168.1 467.3 166.8 479.3 172C494.8 178.7 500.5 193.3 502.6 204.4L501.7 204.6C498 185 487.3 176.5 478.9 172.9C467.1 167.8 452.8 169.1 441.5 176.2L440.7 176.7C439.7 177.3 438.7 177.9 437.7 178.5C426.7 184.6 415.3 192.4 404.3 200C394.4 206.9 385 213.3 377.5 217.3C371 220.7 364.3 222.4 357.9 222.4Z" fill="#FC943B"/>
<path d="M358.3 224.2C353.5 224.2 348.9 223.3 344.6 221.6C335 217.7 327.7 209.8 322.8 198C319.8 190.8 316.6 183.5 313.4 176.3C305.4 158 297.1 139.1 291 119.5C284.3 97.9 272.4 81.5 253.4 68C237.6 56.7 219.6 53.5 204.1 59.3C191.3 64 182.1 74 178.9 86.8L178 86.6C181.3 73.5 190.7 63.3 203.8 58.5C219.6 52.7 237.9 55.9 253.9 67.4C273.1 81 285.2 97.6 291.9 119.4C297.9 138.9 306.2 157.8 314.2 176.1C317.3 183.2 320.6 190.6 323.6 197.8C328.4 209.3 335.6 217.1 344.9 220.8C354.1 224.5 365 224.1 375.6 219.6C388.1 214.3 404.1 203.4 419.6 192.8C424.7 189.4 429.4 186.1 434.1 183C435.1 182.3 436.1 181.6 437 180.9L437.5 180.5C448 172.5 462.5 170.1 474.6 174.6C486.6 179 495 189.6 498.2 204.5L497.3 204.7C494.2 190.1 486 179.8 474.3 175.5C462.5 171.2 448.3 173.5 438.1 181.3L437.6 181.7C436.7 182.4 435.7 183.2 434.6 183.9C429.9 187 425.1 190.2 420.1 193.7C404.6 204.3 388.5 215.2 376 220.6C370.2 223 364.2 224.2 358.3 224.2Z" fill="#FC983C"/>
<path d="M359.2 226.1C345.2 226.1 330.7 219.7 321.7 201.7L320.8 200C309.2 177 297.3 153.2 290.3 126.4C284.7 105 273.9 87.8 257.3 73.8C242.6 61.4 225.4 57 210.2 61.6C197.9 65.4 188.4 74.9 185 87L184.1 86.7C187.7 74.3 197.3 64.5 210 60.7C225.5 56 243 60.4 258 73C274.8 87.1 285.7 104.5 291.3 126.1C298.3 152.9 310.2 176.6 321.7 199.5L322.6 201.2C334.9 225.7 357.6 228.3 374.7 222.5C394.7 215.8 418.9 198.1 431.6 188.1C432.6 187.3 433.6 186.4 434.5 185.5L434.7 185.3C444 176.6 458.5 173.1 470.6 176.8C482.6 180.4 491.1 190.1 494.6 204.3L493.7 204.5C490.3 190.7 482 181.2 470.4 177.7C458.6 174.2 444.5 177.5 435.4 186L435.2 186.2C434.3 187.1 433.3 188 432.2 188.8C419.5 198.8 395.1 216.6 375 223.3C369.9 225.1 364.6 226.1 359.2 226.1Z" fill="#FC9C3D"/>
<path d="M360.3 228.2C343.8 228.2 329.5 220.1 320.5 205.3C308.6 185.8 295.7 161.9 289.6 133.1C285 111.4 275.7 93.8 261.2 79.3C247.6 65.7 231.2 60 216.2 63.6C204.1 66.5 194.7 75.3 190.9 86.9L190 86.6C193.9 74.6 203.6 65.6 216 62.6C231.4 58.9 248.1 64.7 261.9 78.5C276.6 93.1 285.9 110.9 290.5 132.7C296.6 161.5 309.5 185.2 321.3 204.7C337.8 231.9 365.3 227.5 373.4 225.5C390.8 221.2 412.5 208.6 428.7 193.3C429.6 192.4 430.5 191.4 431.5 190.3C439.8 180.8 453.8 176.3 466.2 179.1C478.1 181.8 486.8 190.7 490.5 204.1L489.6 204.4C485.9 191.3 477.6 182.7 466 180.1C453.9 177.3 440.3 181.7 432.2 191C431.2 192.1 430.3 193.1 429.4 194C413.1 209.4 391.2 222.2 373.6 226.5C369 227.6 364.6 228.2 360.3 228.2Z" fill="#FCA03E"/>
<path d="M362.6 230.3C345.2 230.3 329.5 222.6 319.2 208.8C302.6 186.4 292.6 163.8 288.7 139.6C285.1 117.8 277.1 99.3 264.9 84.7C252.5 69.9 236.9 62.9 222 65.5C210.1 67.6 200.6 75.6 196.6 86.8L195.7 86.5C199.9 74.9 209.6 66.7 221.8 64.6C237 61.9 253 69 265.5 84.1C277.8 98.8 285.9 117.4 289.5 139.4C293.4 163.4 303.4 186 319.9 208.2C331.8 224.2 351.3 231.8 372 228.5C391.4 225.4 412.5 213.6 425.7 198.5C426.6 197.5 427.4 196.4 428.2 195.3C435.4 185.2 449.2 179.5 461.7 181.5C473.6 183.4 482.3 191.4 486.3 204.1L485.4 204.4C481.5 192.1 473 184.3 461.5 182.5C449.3 180.6 435.9 186.1 428.9 195.9C428.1 197 427.3 198.1 426.4 199.2C413 214.5 391.7 226.4 372.1 229.5C369 230.1 365.8 230.3 362.6 230.3Z" fill="#FBA53E"/>
<path d="M365.6 232.8C347.2 232.8 330.1 225.5 318 212.4C301.2 194.3 290.5 170.8 287.8 146.3C285.2 123.8 278.7 105 268.6 90.3C257.6 74.3 242.7 66 228 67.6C216.5 68.9 206.7 76.3 202.4 86.9L201.5 86.5C205.9 75.5 216 67.9 227.9 66.6C243.1 64.9 258.2 73.3 269.4 89.7C279.6 104.5 286.1 123.5 288.7 146.1C291.3 170.4 302 193.7 318.6 211.7C331.6 225.8 350.6 233.1 370.8 231.6C392 230 412 219.4 423 203.9C423.7 202.9 424.4 201.8 425.2 200.5C431.4 189.7 444.7 182.9 457.6 184C469.2 185 478.3 192.4 482.5 204.2L481.6 204.5C479.2 197.8 472.9 186.3 457.5 184.9C445 183.8 432 190.4 426 200.9C425.2 202.2 424.5 203.4 423.8 204.4C412.6 220.2 392.4 231 371 232.6C369.2 232.7 367.4 232.8 365.6 232.8Z" fill="#FBA93F"/>
<path d="M370.2 235.7C365.5 235.7 360.6 235.3 355.7 234.4C338.3 231.3 322.2 222.6 310.3 209.9C296.6 195.3 288.6 175.7 287 153.1C282.1 83 250.6 72 241 70.3C227.3 67.9 213.8 74.8 208.2 87.1L207.3 86.7C213 74 226.9 66.8 241.1 69.3C250.8 71 283 82.2 287.9 153C289.4 175.4 297.4 194.9 310.9 209.3C322.6 221.8 338.6 230.4 355.7 233.5C385.3 238.8 412 227.5 421.9 205.4C427.1 193.8 440 186 453.2 186.2C464.7 186.4 473.8 192.9 478.3 204L477.4 204.4C473.1 193.7 464.3 187.4 453.2 187.2C440.3 187 427.9 194.6 422.8 205.8C414.4 224.5 394.2 235.7 370.2 235.7Z" fill="#FBAD40"/>
<path d="M426.5 159.5H422.5V180.7H426.5V159.5Z" fill="#0055DC"/>
<path d="M531.6 159.5H527.6V180.7H531.6V159.5Z" fill="#0055DC"/>
<path d="M527.6 155.8H426.5V184.6H527.6V155.8Z" fill="#C5EBF5"/>
<path d="M528 185H426V155.3H528V185ZM427 184.1H527.2V156.3H427V184.1Z" fill="#0055DC"/>
<path d="M523.3 159.8H430.9V180.5H523.3V159.8Z" fill="white"/>
<path d="M522.1 184.5H432V188.5H522.1V184.5Z" fill="white"/>
<path d="M522.6 189H431.6V184H522.6V189ZM432.5 188.1H521.6V185H432.5V188.1Z" fill="#0055DC"/>
<path d="M438.3 165.6H436.1V167.8H438.3V165.6Z" fill="#0055DC"/>
<path d="M438.3 172.4H436.1V174.6H438.3V172.4Z" fill="#0055DC"/>
<path d="M441.4 168.8H439.2V171H441.4V168.8Z" fill="#0055DC"/>
<path d="M444.1 165.6H441.9V167.8H444.1V165.6Z" fill="#0055DC"/>
<path d="M444.1 172.4H441.9V174.6H444.1V172.4Z" fill="#0055DC"/>
<path d="M447 168.8H444.8V171H447V168.8Z" fill="#0055DC"/>
<path d="M450.4 165.6H448.2V167.8H450.4V165.6Z" fill="#0055DC"/>
<path d="M450.4 172.4H448.2V174.6H450.4V172.4Z" fill="#0055DC"/>
<path d="M453.3 168.8H451.1V171H453.3V168.8Z" fill="#0055DC"/>
<path d="M456.8 165.6H454.6V167.8H456.8V165.6Z" fill="#0055DC"/>
<path d="M456.8 172.4H454.6V174.6H456.8V172.4Z" fill="#0055DC"/>
<path d="M459.6 168.8H457.4V171H459.6V168.8Z" fill="#0055DC"/>
<path d="M462.6 165.6H460.4V167.8H462.6V165.6Z" fill="#0055DC"/>
<path d="M462.6 172.4H460.4V174.6H462.6V172.4Z" fill="#0055DC"/>
<path d="M465.2 168.8H463V171H465.2V168.8Z" fill="#0055DC"/>
<path d="M468.4 165.6H466.2V167.8H468.4V165.6Z" fill="#0055DC"/>
<path d="M468.4 172.4H466.2V174.6H468.4V172.4Z" fill="#0055DC"/>
<path d="M470.8 168.8H468.6V171H470.8V168.8Z" fill="#0055DC"/>
<path d="M515.9 172.9C517.446 172.9 518.7 171.646 518.7 170.1C518.7 168.554 517.446 167.3 515.9 167.3C514.354 167.3 513.1 168.554 513.1 170.1C513.1 171.646 514.354 172.9 515.9 172.9Z" fill="#0055DC"/>
<path d="M507.9 169.7H478.5V170.5H507.9V169.7Z" fill="#0055DC"/>
<path d="M426.5 192.3H422.5V213.5H426.5V192.3Z" fill="#0055DC"/>
<path d="M531.6 192.3H527.6V213.5H531.6V192.3Z" fill="#0055DC"/>
<path d="M522.1 217.3H432V221.3H522.1V217.3Z" fill="white"/>
<path d="M522.6 221.8H431.6V216.8H522.6V221.8ZM432.5 220.9H521.6V217.8H432.5V220.9Z" fill="#0055DC"/>
<path d="M527.6 188.6H426.5V217.4H527.6V188.6Z" fill="#C5EBF5"/>
<path d="M528 217.8H426V188.1H528V217.8ZM427 216.9H527.2V189H427V216.9Z" fill="#0055DC"/>
<path d="M523.3 192.6H430.9V213.3H523.3V192.6Z" fill="white"/>
<path d="M438.3 198.5H436.1V200.7H438.3V198.5Z" fill="#0055DC"/>
<path d="M438.3 205.2H436.1V207.4H438.3V205.2Z" fill="#0055DC"/>
<path d="M441.4 201.6H439.2V203.8H441.4V201.6Z" fill="#0055DC"/>
<path d="M444.1 198.5H441.9V200.7H444.1V198.5Z" fill="#0055DC"/>
<path d="M444.1 205.2H441.9V207.4H444.1V205.2Z" fill="#0055DC"/>
<path d="M447 201.6H444.8V203.8H447V201.6Z" fill="#0055DC"/>
<path d="M450.4 198.5H448.2V200.7H450.4V198.5Z" fill="#0055DC"/>
<path d="M450.4 205.2H448.2V207.4H450.4V205.2Z" fill="#0055DC"/>
<path d="M453.3 201.6H451.1V203.8H453.3V201.6Z" fill="#0055DC"/>
<path d="M456.8 198.5H454.6V200.7H456.8V198.5Z" fill="#0055DC"/>
<path d="M456.8 205.2H454.6V207.4H456.8V205.2Z" fill="#0055DC"/>
<path d="M459.6 201.6H457.4V203.8H459.6V201.6Z" fill="#0055DC"/>
<path d="M462.6 198.5H460.4V200.7H462.6V198.5Z" fill="#0055DC"/>
<path d="M462.6 205.2H460.4V207.4H462.6V205.2Z" fill="#0055DC"/>
<path d="M465.2 201.6H463V203.8H465.2V201.6Z" fill="#0055DC"/>
<path d="M468.4 198.5H466.2V200.7H468.4V198.5Z" fill="#0055DC"/>
<path d="M468.4 205.2H466.2V207.4H468.4V205.2Z" fill="#0055DC"/>
<path d="M470.8 201.6H468.6V203.8H470.8V201.6Z" fill="#0055DC"/>
<path d="M515.9 205.8C517.446 205.8 518.7 204.546 518.7 203C518.7 201.454 517.446 200.2 515.9 200.2C514.354 200.2 513.1 201.454 513.1 203C513.1 204.546 514.354 205.8 515.9 205.8Z" fill="#0055DC"/>
<path d="M507.9 202.5H478.5V203.3H507.9V202.5Z" fill="#0055DC"/>
<path fill-rule="evenodd" clip-rule="evenodd" d="M248.4 86.8H71C66.1 86.8 62.1 90.8 62.1 95.7V212.4H257.4V95.7C257.3 90.8 253.3 86.9 248.4 86.8Z" fill="#C5EBF5"/>
<path d="M257.9 212.8H61.6V95.7C61.7 90.6 65.9 86.4 71 86.4H248.4C253.5 86.4 257.7 90.6 257.8 95.7L257.9 212.8ZM62.6 211.9H256.9V95.7C256.8 91.1 253 87.3 248.4 87.3H71C66.4 87.3 62.6 91.1 62.5 95.7L62.6 211.9Z" fill="#0055DC"/>
<path d="M159.8 95.6C160.684 95.6 161.4 94.8837 161.4 94C161.4 93.1163 160.684 92.4 159.8 92.4C158.916 92.4 158.2 93.1163 158.2 94C158.2 94.8837 158.916 95.6 159.8 95.6Z" fill="#0055DC"/>
<path fill-rule="evenodd" clip-rule="evenodd" d="M265.2 221.4H54.3C43.3 221.4 36 219.7 36 218.1V213.2C36.1 212.7 36.5 212.3 37.1 212.3H282.5C283 212.3 283.5 212.6 283.6 213.2V218.2C283.5 219.5 277.8 221.4 265.2 221.4Z" fill="white"/>
<path d="M265.2 221.8H54.3C45 221.8 35.5 220.5 35.5 218V213.1C35.6 212.3 36.3 211.7 37.1 211.8H282.5C283.2 211.7 283.9 212.3 284 213.1V218.2C284 220.4 276.3 221.8 265.2 221.8ZM37 212.8C36.7 212.8 36.5 213 36.4 213.3V218.1C36.4 218.9 41.9 220.9 54.3 220.9H265.2C278.5 220.9 283 218.9 283.1 218.2V213.2C283.1 213 282.8 212.8 282.5 212.8H37C37 212.8 37.1 212.8 37 212.8Z" fill="#0055DC"/>
<path d="M283.5 213.2C283.4 212.7 283 212.3 282.4 212.3H37.1C36.6 212.3 36.1 212.6 36 213.2V217.9H283.5V213.2Z" fill="#C5EBF5"/>
<path d="M265.2 221.8H54.3C45 221.8 35.5 220.5 35.5 218V213.1C35.6 212.3 36.3 211.7 37.1 211.8H282.5C283.2 211.7 283.9 212.3 284 213.1V218.2C284 220.4 276.3 221.8 265.2 221.8ZM37 212.8C36.7 212.8 36.5 213 36.4 213.3V218.1C36.4 218.9 41.9 220.9 54.3 220.9H265.2C278.5 220.9 283 218.9 283.1 218.2V213.2C283.1 213 282.8 212.8 282.5 212.8H37C37 212.8 37.1 212.8 37 212.8Z" fill="#0055DC"/>
<path d="M249.2 100.8H70V205.2H249.2V100.8Z" fill="white"/>
<path fill-rule="evenodd" clip-rule="evenodd" d="M186.6 212.7V213.8C186.6 214.6 185 214.8 183.9 214.8H135.8C134.6 214.8 133 214.6 133 213.8V212.7" fill="#0055DC"/>
<path d="M248.8 100.9H70.2001V108.3H248.8V100.9Z" fill="#0055DC"/>
<path d="M249.2 108.7H69.9V100.6H249.2V108.7ZM70.6 108H248.5V101.3H70.6V108Z" fill="#0055DC"/>
<path d="M76.2001 106C76.9732 106 77.6 105.373 77.6 104.6C77.6 103.827 76.9732 103.2 76.2001 103.2C75.4269 103.2 74.8 103.827 74.8 104.6C74.8 105.373 75.4269 106 76.2001 106Z" fill="white"/>
<path d="M80.5999 106C81.3731 106 82 105.373 82 104.6C82 103.827 81.3731 103.2 80.5999 103.2C79.8268 103.2 79.2 103.827 79.2 104.6C79.2 105.373 79.8268 106 80.5999 106Z" fill="white"/>
<path d="M85 106C85.7732 106 86.4 105.373 86.4 104.6C86.4 103.827 85.7732 103.2 85 103.2C84.2268 103.2 83.6 103.827 83.6 104.6C83.6 105.373 84.2268 106 85 106Z" fill="white"/>
<path d="M157.9 173.3C172.149 173.3 183.7 161.749 183.7 147.5C183.7 133.251 172.149 121.7 157.9 121.7C143.651 121.7 132.1 133.251 132.1 147.5C132.1 161.749 143.651 173.3 157.9 173.3Z" fill="white"/>
<path d="M166.1 142.9C165.8 141.7 165.6 140.5 165.5 139.3C160.7 139.6 153.6 137.1 151.6 135.5L151.8 135.2C153.8 136.7 161.1 139.3 165.7 138.9H165.9V139.1C166 140.4 166.2 141.6 166.5 142.9H166.1Z" fill="#0055DC"/>
<path d="M168.8 139C169.3 139.8 172.1 140.4 172.1 142.9C172.1 145.4 170 146.7 169.7 148.7C169.4 150.7 170.1 151.8 173.4 153.7C178.2 156.4 177.6 163.8 170.8 165.3C170.8 165.3 163.4 162.3 161.9 160V153.1L152.3 153V160.3C150.1 162.7 143.4 165.7 140.8 167.2C139.7 166 139.1 164.5 139.3 162.9C139.4 160.1 146.5 157.9 146.5 156.3C146.5 154.7 143 151.2 143 148.6C143 146 147.5 143.7 147.5 138.6C147.5 129.9 156.3 130.1 157.1 130.1C166.6 130.1 167.9 137.6 168.8 139Z" fill="#003682"/>
<path d="M140.7 167.5L140.6 167.4C139.5 166.2 138.9 164.6 139 162.9C139.1 161.2 141.4 159.8 143.5 158.5C144.8 157.7 146.2 156.9 146.2 156.3C146.2 155.7 145.5 154.6 144.8 153.5C143.8 151.9 142.7 150.1 142.7 148.6C142.7 147.4 143.5 146.4 144.4 145.1C145.7 143.4 147.2 141.5 147.2 138.6C147.2 136 148 134 149.4 132.5C151.7 130.2 155.1 129.9 156.9 129.9C156.9 129.9 156.9 129.9 157 129.9C165.3 129.9 167.5 135.3 168.5 137.9C168.7 138.4 168.8 138.7 169 138.9C169.1 139.1 169.5 139.3 169.9 139.6C170.9 140.2 172.3 141.1 172.3 142.9C172.3 144.4 171.6 145.4 171 146.4C170.5 147.1 170.1 147.8 169.9 148.7C169.6 150.5 170.1 151.6 173.5 153.5C175.8 154.8 177.1 157.3 176.7 159.8C176.3 162.6 174.1 164.8 170.8 165.5H170.7H170.6C170.3 165.4 163.1 162.4 161.6 160.1V160V153.3L152.4 153.2V160.4L152.3 160.5C150.6 162.3 146.4 164.5 143.3 166.1C142.3 166.6 141.4 167.1 140.8 167.5H140.7ZM157 130.3C155.5 130.3 152 130.6 149.7 132.8C148.3 134.2 147.6 136.1 147.6 138.6C147.6 141.7 146 143.8 144.7 145.4C143.8 146.6 143 147.6 143 148.6C143 150 144.1 151.7 145.1 153.2C145.9 154.5 146.6 155.5 146.6 156.3C146.6 157.1 145.3 157.9 143.6 158.9C141.7 160 139.4 161.4 139.3 162.9C139.2 164.4 139.7 165.8 140.6 166.9C141.2 166.5 142.1 166.1 143 165.6C146 164 150.1 161.9 151.8 160.1V152.6L161.9 152.7V159.7C163.4 161.8 169.9 164.5 170.6 164.8C173.6 164.1 175.7 162.1 176.1 159.5C176.4 157.1 175.3 154.8 173.1 153.6C169.8 151.8 168.9 150.6 169.2 148.4C169.3 147.5 169.8 146.7 170.3 146C170.9 145 171.6 144.1 171.6 142.7C171.6 141.1 170.4 140.4 169.4 139.8C168.9 139.5 168.5 139.3 168.3 139C168.1 138.8 168 138.4 167.8 137.9C167.1 135.5 165 130.3 157 130.3C157.1 130.3 157 130.3 157 130.3Z" fill="#003682"/>
<path d="M148.2 163.2C149.6 162.4 151 161.4 152.2 160.3V153L161.8 153.1V160C162.2 160.9 163.9 161.9 166.1 163.1C163.2 164.7 160.1 165.5 156.8 165.5C153.8 165.6 150.8 164.8 148.2 163.2Z" fill="#C5EBF5"/>
<path d="M156.8 165.8C153.7 165.8 150.7 164.9 148.1 163.3L147.8 163.1L148.2 162.9C149.6 162.1 150.9 161.2 152.1 160.1V152.7L162.2 152.8V159.9C162.6 160.7 164.2 161.7 166.4 162.9L166.8 163.1L166.4 163.3C163.4 164.9 160.2 165.8 156.8 165.8C156.9 165.8 156.8 165.8 156.8 165.8ZM148.7 163.2C151.2 164.6 154 165.4 156.8 165.4C156.8 165.4 156.8 165.4 156.9 165.4C160 165.4 163 164.6 165.7 163.2C163.5 162 162.1 161 161.7 160.2V160.1V153.5L152.5 153.4V160.5L152.4 160.6C151.3 161.5 150 162.4 148.7 163.2Z" fill="#003682"/>
<path d="M157.9 173.4C163.7 173.4 169.3 171.5 173.9 167.9C171.5 166.1 169 164.5 166.3 163.2C163.4 164.8 160.2 165.6 157 165.7C153.9 165.7 150.9 164.9 148.3 163.3C146.1 164.5 143.5 165.7 141.1 167.2C145.8 171.1 151.7 173.3 157.9 173.4Z" fill="#0055DC"/>
<path d="M158 173.6C157.9 173.6 157.9 173.6 158 173.6C151.7 173.6 145.7 171.4 141 167.3L140.8 167.1L141.1 166.9C142.5 166 144 165.3 145.4 164.5C146.4 164 147.3 163.5 148.2 163L148.3 162.9L148.4 163C150.9 164.5 153.9 165.4 156.8 165.4H156.9C160.1 165.3 163.3 164.5 166.1 163L166.2 162.9L166.3 163C169 164.3 171.6 165.9 174 167.7L174.2 167.9L174 168C169.5 171.6 163.8 173.6 158 173.6ZM141.5 167.1C146.1 171 151.9 173.1 157.9 173.1H158C163.6 173.1 169.1 171.2 173.5 167.8C171.2 166.1 168.8 164.6 166.3 163.4C163.4 164.9 160.2 165.8 156.9 165.8C153.9 165.8 150.9 165 148.2 163.4C147.3 163.9 146.4 164.4 145.5 164.8C144.2 165.6 142.8 166.4 141.5 167.1Z" fill="#003682"/>
<path d="M166.6 139.7C166.5 143.4 165.6 147 164.1 150.4C162.9 152.7 159.8 155.2 157 155.2C154.2 155.2 151.4 152.7 149.9 150.4C148 147.5 147.4 142.2 147.4 139.7C147.4 134.4 151.7 130.1 157 130.1C162.3 130.1 166.6 134.4 166.6 139.7Z" fill="#C5EBF5"/>
<path d="M157 155.4C154.1 155.4 151.2 152.7 149.7 150.5C147.8 147.7 147.1 142.5 147.1 139.7C147.1 137.1 148.1 134.6 150 132.8C151.9 130.9 154.3 129.9 156.9 129.9C162.3 129.9 166.7 134.3 166.7 139.7C166.6 143.4 165.7 147.1 164.2 150.4C163 152.8 159.9 155.4 157 155.4ZM157 130.4C154.5 130.4 152.2 131.4 150.4 133.1C148.6 134.9 147.7 137.2 147.7 139.7C147.7 142.4 148.4 147.5 150.2 150.2C151.8 152.5 154.5 154.9 157.1 154.9C159.7 154.9 162.8 152.5 164 150.2C165.5 146.9 166.4 143.3 166.5 139.6C166.4 134.5 162.2 130.4 157 130.4Z" fill="#003682"/>
<path d="M166.3 142.8C166 141.5 165.8 140.3 165.7 139C160.9 139.4 153.7 136.8 151.7 135.3C151.7 135.3 149.9 142.3 147.8 143.7C147.6 142.4 147.5 141 147.5 139.7C147.5 134.4 151.8 130.1 157.1 130.1C162.4 130.1 166.7 134.4 166.7 139.7C166.6 140.8 166.5 141.8 166.3 142.8Z" fill="#003682"/>
<path d="M147.6 144.1L147.5 143.7C147.3 142.4 147.2 141 147.2 139.7C147.2 134.3 151.6 129.9 157 129.9C162.4 129.9 166.8 134.3 166.8 139.7C166.8 140.7 166.7 141.8 166.5 142.8L166.6 143L166 143.2L166.1 142.8C165.8 141.7 165.6 140.5 165.5 139.3C160.9 139.6 154.2 137.3 151.9 135.7C151.5 137.1 149.9 142.6 148 143.9L147.6 144.1ZM157 130.4C151.8 130.4 147.7 134.6 147.7 139.7C147.7 140.9 147.8 142.1 148 143.3C149.9 141.5 151.5 135.3 151.5 135.3L151.6 135L151.9 135.2C153.9 136.7 161.1 139.3 165.7 138.9H165.9V139.1C166 139.9 166.1 140.7 166.2 141.5C166.3 140.9 166.3 140.4 166.3 139.8C166.3 134.5 162.1 130.4 157 130.4Z" fill="#003682"/>
<path d="M166.2 143.7C166.4 142.9 167.3 142.4 168.1 142.6H168.2C169.4 143 168.7 147.3 165.3 147.2C165.7 146.1 165.9 144.9 166.2 143.7Z" fill="#C5EBF5"/>
<path d="M165.5 147.5C165.4 147.5 165.4 147.5 165.3 147.5H165L165.1 147.2C165.4 146.1 165.7 144.9 165.9 143.7C166.1 142.8 167.1 142.2 168.1 142.4H168.2C168.8 142.6 169 143.4 168.9 144.4C168.6 145.9 167.5 147.5 165.5 147.5ZM166.4 143.8C166.2 144.9 165.9 146 165.6 147C167.5 146.9 168.2 145.3 168.4 144.3C168.5 143.6 168.4 142.9 168.1 142.8H168C167.3 142.6 166.6 143.1 166.4 143.8Z" fill="#003682"/>
<path d="M147.8 143.7C147.6 142.9 146.7 142.4 145.9 142.6H145.8C144.8 143 145.3 147.3 148.6 147.2C148.2 146.1 148 144.9 147.8 143.7Z" fill="#C5EBF5"/>
<path d="M148.4 147.5C146.5 147.5 145.5 146.1 145.1 144.7C144.9 143.8 145 142.7 145.6 142.4C145.7 142.4 145.7 142.4 145.7 142.4C146.7 142.1 147.7 142.7 147.9 143.7C148.1 144.9 148.3 146 148.7 147.2L148.8 147.5H148.5C148.5 147.5 148.5 147.5 148.4 147.5ZM146.3 142.8C146.2 142.8 146.1 142.8 145.9 142.8H145.8C145.5 142.9 145.4 143.7 145.6 144.5C145.9 145.6 146.7 146.8 148.3 146.9C148 145.8 147.8 144.8 147.6 143.7C147.4 143.2 146.8 142.8 146.3 142.8Z" fill="#003682"/>
<path d="M157.9 173.8C143.4 173.8 131.6 162 131.6 147.5C131.6 133 143.4 121.2 157.9 121.2C172.4 121.2 184.2 133 184.2 147.5C184.2 162 172.4 173.8 157.9 173.8ZM157.9 122.2C143.9 122.2 132.6 133.6 132.6 147.5C132.6 161.4 144 172.8 157.9 172.8C171.8 172.8 183.2 161.4 183.2 147.5C183.2 133.6 171.9 122.2 157.9 122.2Z" fill="#0055DC"/>
<path d="M181.1 178.4H134.6V194.6H181.1V178.4Z" fill="white"/>
<path d="M181.6 195.1H134.1V177.9H181.6V195.1ZM135.1 194.1H180.6V178.9H135.1V194.1Z" fill="#0055DC"/>
<path d="M147.2 187.1L145.1 188.4L144.7 187.7L146.8 186.5L144.7 185.3L145.1 184.6L147.2 185.9L147.1 183.5H147.9L147.8 185.9L149.9 184.6L150.3 185.3L148.2 186.5L150.3 187.7L149.9 188.4L147.8 187.1L147.9 189.5H147.1L147.2 187.1Z" fill="#F6821F"/>
<path d="M154.1 187.1L152 188.4L151.6 187.7L153.7 186.5L151.6 185.3L152 184.6L154.1 185.9L154 183.5H154.8L154.7 185.9L156.8 184.6L157.2 185.3L155.1 186.5L157.2 187.7L156.8 188.4L154.7 187.1L154.8 189.5H154L154.1 187.1Z" fill="#F6821F"/>
<path d="M161 187.1L159 188.4L158.6 187.7L160.7 186.5L158.6 185.3L159 184.6L161.1 185.9L161 183.5H161.8L161.7 185.9L163.8 184.6L164.2 185.3L162 186.5L164.1 187.7L163.7 188.4L161.6 187.1L161.7 189.5H161V187.1Z" fill="#F6821F"/>
<path d="M168 187.1L165.9 188.4L165.5 187.7L167.6 186.5L165.5 185.3L165.9 184.6L168 185.9L167.9 183.5H168.7L168.6 185.9L170.7 184.6L171.1 185.3L169 186.5L171.1 187.7L170.7 188.4L168.6 187.1L168.7 189.5H167.9L168 187.1Z" fill="#F6821F"/>
</svg>
