<?xml version="1.0" encoding="utf-8"?>
<!-- Generator: Adobe Illustrator 25.0.0, SVG Export Plug-In . SVG Version: 6.00 Build 0)  -->
<svg version="1.1" xmlns="http://www.w3.org/2000/svg" xmlns:xlink="http://www.w3.org/1999/xlink" x="0px" y="0px"
	 viewBox="0 0 546 264" style="enable-background:new 0 0 546 264;" xml:space="preserve">
<style type="text/css">
	.st0{display:none;}
	.st1{display:inline;}
	.st2{fill:#FFFFFF;}
	.st3{opacity:0.3;fill:#FF00FF;}
	.st4{opacity:0.5;fill:#FF00FF;}
	.st5{fill:#E2F5FA;}
	.st6{fill:#C5EBF5;}
	.st7{fill:none;stroke:#222222;stroke-miterlimit:10;}
	.st8{fill:#222222;}
	.st9{fill:#FFFFFF;stroke:#FF6633;stroke-miterlimit:10;}
	.st10{fill:none;stroke:#FF6633;stroke-miterlimit:10;}
	.st11{fill:#272F3D;}
	.st12{fill-rule:evenodd;clip-rule:evenodd;fill:#F19B38;}
	.st13{fill:#4AABE8;}
	.st14{fill:#E1E1E1;}
	.st15{fill:#5D8FED;}
	.st16{fill:#D85241;}
	.st17{fill:#F1BE43;}
	.st18{fill:#E940F6;}
	.st19{fill:#1B59D3;}
	.st20{fill:none;stroke:#FF6633;stroke-linejoin:bevel;stroke-miterlimit:10;}
	.st21{fill:#0055DC;}
	.st22{fill:#FFFFFF;stroke:#222222;stroke-miterlimit:10;}
	.st23{clip-path:url(#SVGID_2_);}
	.st24{fill:#A53237;}
	.st25{fill:#EEBB45;}
	.st26{fill:#D8503F;}
	.st27{fill:#2E74B5;}
	.st28{fill:#E1E2E3;}
	.st29{fill:#6CB35B;}
	.st30{fill:none;stroke:#222222;stroke-width:0.5;stroke-miterlimit:10;}
	.st31{clip-path:url(#SVGID_4_);}
	.st32{fill:none;stroke:#0055DC;stroke-width:0.814;stroke-miterlimit:10;}
	.st33{fill:#C5EBF5;stroke:#0F387D;stroke-width:0.5;stroke-miterlimit:10;}
	.st34{fill:#0055DC;stroke:#0F387D;stroke-width:0.5;stroke-miterlimit:10;}
	.st35{fill:#003682;}
	.st36{fill:none;stroke:#003682;stroke-width:0.505;stroke-linejoin:round;stroke-miterlimit:10;}
	.st37{fill:#003682;stroke:#003682;stroke-width:0.505;stroke-linejoin:round;stroke-miterlimit:10;}
	.st38{fill:#B0291C;}
	.st39{fill:none;stroke:#B9B9B9;stroke-miterlimit:10;}
	.st40{fill:none;stroke:#57CF7D;stroke-miterlimit:10;}
	.st41{fill:#57CF7D;}
	.st42{fill:none;stroke:#B0291C;stroke-miterlimit:10;}
	.st43{clip-path:url(#SVGID_6_);}
	.st44{fill:none;stroke:#FBAD41;stroke-miterlimit:10;}
	.st45{fill:none;stroke:#F6821F;stroke-miterlimit:10;}
	.st46{fill:#FF6633;}
	.st47{fill:#0055DB;}
	.st48{fill:none;stroke:#747474;stroke-miterlimit:10;}
	.st49{fill:#747474;}
	.st50{clip-path:url(#SVGID_8_);}
	.st51{fill:none;stroke:#1B59D3;stroke-width:0.8515;stroke-miterlimit:10;}
	.st52{fill:#CBE9F3;stroke:#193979;stroke-width:0.5;stroke-miterlimit:10;}
	.st53{fill:#FFFFFF;stroke:#0F387D;stroke-width:0.5;stroke-linecap:round;stroke-linejoin:round;stroke-miterlimit:10;}
	.st54{fill:#FFFFFF;stroke:#0F387D;stroke-width:0.9566;stroke-linecap:round;stroke-linejoin:round;stroke-miterlimit:10;}
	.st55{fill:#1B59D3;stroke:#0F387D;stroke-width:0.5;stroke-linecap:round;stroke-miterlimit:10;}
	.st56{fill:#0F387D;stroke:#0F387D;stroke-width:0.5;stroke-linecap:round;stroke-linejoin:round;stroke-miterlimit:10;}
	.st57{fill:#FFFFFF;stroke:#0055DC;stroke-width:0.75;stroke-miterlimit:10;}
	.st58{fill:#C5EBF5;stroke:#0055DC;stroke-width:0.75;stroke-miterlimit:10;}
	.st59{fill:none;stroke:#0055DC;stroke-width:0.75;stroke-miterlimit:10;}
	.st60{fill:#6ECCE5;}
	.st61{fill:#FFFFFF;stroke:#6ECCE5;stroke-width:0.75;stroke-miterlimit:10;}
	.st62{fill:#C5EBF5;stroke:#6ECCE5;stroke-width:0.75;stroke-miterlimit:10;}
	.st63{fill:none;stroke:#6ECCE5;stroke-width:0.75;stroke-miterlimit:10;}
	.st64{fill:#0055DA;}
	.st65{fill:#F9FF00;}
	.st66{fill:none;stroke:#222222;stroke-width:0.8599;stroke-miterlimit:10;}
	.st67{fill:none;stroke:#222222;stroke-width:0.8599;stroke-linejoin:bevel;}
	.st68{fill:none;stroke:#222222;stroke-width:0.8599;stroke-linejoin:bevel;stroke-dasharray:1.3314,1.3314;}
	.st69{fill:none;stroke:#222222;stroke-width:0.8599;stroke-linejoin:bevel;stroke-dasharray:1.3238,1.3238;}
	.st70{fill:#C5EBF5;stroke:#0055DC;stroke-width:0.6142;stroke-miterlimit:10;}
	.st71{fill:none;stroke:#0055DC;stroke-width:0.6142;stroke-miterlimit:10;stroke-dasharray:1.4741;}
	.st72{fill:#FFFFFF;stroke:#0055DC;stroke-width:0.6142;stroke-miterlimit:10;}
	.st73{fill:none;stroke:#0055DC;stroke-width:0.6142;stroke-miterlimit:10;}
	.st74{fill:none;stroke:#6ECCE5;stroke-width:0.8599;stroke-miterlimit:10;}
	.st75{fill-rule:evenodd;clip-rule:evenodd;fill:#C5EBF5;stroke:#0055DC;stroke-width:0.75;stroke-miterlimit:10;}
	
		.st76{clip-path:url(#Shape_4_);fill-rule:evenodd;clip-rule:evenodd;fill:none;stroke:#0055DC;stroke-width:0.3289;stroke-miterlimit:10;}
	.st77{clip-path:url(#Shape_4_);}
	.st78{fill:none;}
	.st79{fill-rule:evenodd;clip-rule:evenodd;fill:#FFFFFF;}
	.st80{fill-rule:evenodd;clip-rule:evenodd;fill:#0055DC;}
	.st81{clip-path:url(#SVGID_10_);}
	.st82{fill:none;stroke:#0055DC;stroke-width:0.2103;stroke-miterlimit:10;}
	.st83{fill:#003682;stroke:#003682;stroke-width:0.2688;stroke-miterlimit:10;}
	.st84{fill:#0055DC;stroke:#0F387D;stroke-width:0.2688;stroke-miterlimit:10;}
	
		.st85{clip-path:url(#Shape_5_);fill-rule:evenodd;clip-rule:evenodd;fill:none;stroke:#0055DC;stroke-width:0.3289;stroke-miterlimit:10;}
	.st86{clip-path:url(#Shape_5_);}
	.st87{clip-path:url(#SVGID_12_);}
	.st88{fill-rule:evenodd;clip-rule:evenodd;fill:#C5EBF5;stroke:#0055DC;stroke-width:0.65;stroke-miterlimit:10;}
	
		.st89{clip-path:url(#Shape_11_);fill-rule:evenodd;clip-rule:evenodd;fill:none;stroke:#0055DC;stroke-width:0.3289;stroke-miterlimit:10;}
	.st90{clip-path:url(#Shape_11_);}
	.st91{clip-path:url(#SVGID_14_);}
	.st92{fill:#C5EBF5;stroke:#0F387D;stroke-width:0.65;stroke-miterlimit:10;}
	.st93{fill:none;stroke:#6ECCE5;stroke-miterlimit:10;}
	.st94{fill:none;stroke:#222222;stroke-miterlimit:10;stroke-dasharray:1.0378,1.0378;}
	.st95{fill:none;stroke:#222222;stroke-miterlimit:10;stroke-dasharray:1,1;}
	
		.st96{clip-path:url(#Shape_12_);fill-rule:evenodd;clip-rule:evenodd;fill:none;stroke:#0055DC;stroke-width:0.3289;stroke-miterlimit:10;}
	.st97{clip-path:url(#Shape_12_);}
	.st98{clip-path:url(#SVGID_16_);}
	.st99{clip-path:url(#SVGID_18_);}
	.st100{fill:#222222;stroke:#222222;stroke-width:2.5047;stroke-miterlimit:10;}
	.st101{fill:#222222;stroke:#4E4E4E;stroke-width:0.5;stroke-miterlimit:10;}
	.st102{fill:#B9B9B9;stroke:#4E4E4E;stroke-width:0.5;stroke-miterlimit:10;}
	.st103{fill:#4E4E4E;}
	.st104{fill:#FFFFFF;stroke:#4E4E4E;stroke-width:0.5;stroke-miterlimit:10;}
	.st105{fill:#B9B9B9;}
	.st106{fill:none;stroke:#B0291C;stroke-width:0.75;stroke-miterlimit:10;}
	.st107{clip-path:url(#SVGID_20_);}
	.st108{fill:none;stroke:#222222;stroke-width:0.8599;stroke-miterlimit:10;stroke-dasharray:1,2;}
	.st109{clip-path:url(#SVGID_22_);}
	.st110{fill:#FFFFFF;stroke:#747474;stroke-miterlimit:10;}
	.st111{fill:none;stroke:#747474;stroke-width:0.5;stroke-miterlimit:10;stroke-dasharray:1,2;}
	.st112{enable-background:new    ;}
	.st113{fill:#D8D8D8;}
	.st114{fill:none;stroke:#2A2A2A;stroke-width:0.1123;}
	.st115{fill:#666666;}
	.st116{fill:#A6A6A6;}
	.st117{fill-rule:evenodd;clip-rule:evenodd;fill:#747474;}
	.st118{fill:#737373;}
	.st119{fill:#7C7C7C;}
	.st120{fill:#949494;}
	.st121{fill:#7B7B7B;}
	.st122{fill:#BABABA;}
	.st123{fill:#E78532;}
	.st124{fill:#EFAD57;}
	.st125{fill-rule:evenodd;clip-rule:evenodd;}
	.st126{fill-rule:evenodd;clip-rule:evenodd;fill:#BB3532;}
	.st127{fill:#14353C;}
	.st128{fill:#EAA242;}
	.st129{fill:#2D6DA8;}
	.st130{fill:#449FD9;}
	.st131{fill-rule:evenodd;clip-rule:evenodd;fill:#18477B;}
	.st132{fill-rule:evenodd;clip-rule:evenodd;fill:#BAC6D2;}
	.st133{fill-rule:evenodd;clip-rule:evenodd;fill:#2E3E41;}
	.st134{fill-rule:evenodd;clip-rule:evenodd;fill:#8CB3A1;}
	.st135{fill:#2E3E41;}
	.st136{fill:#95B459;}
	.st137{fill:#648347;}
	.st138{fill:#FFFFFD;}
	.st139{fill:#1A1919;}
	.st140{fill:#2E76C2;}
	.st141{fill:#1F66F5;}
	.st142{fill:#E05B35;}
	.st143{fill:#8BB638;}
	.st144{fill:#45A2E8;}
	.st145{fill:#F4B941;}
	.st146{fill-rule:evenodd;clip-rule:evenodd;fill:#221F20;}
	.st147{fill-rule:evenodd;clip-rule:evenodd;fill:#E57F48;}
	.st148{fill:#D85040;}
	.st149{fill:#F1BC42;}
	.st150{fill:#5086EB;}
	.st151{fill:#58A45C;}
	.st152{clip-path:url(#SVGID_24_);}
	.st153{clip-path:url(#SVGID_26_);}
	.st154{clip-path:url(#SVGID_28_);}
	.st155{clip-path:url(#SVGID_30_);}
	.st156{clip-path:url(#SVGID_32_);}
	.st157{fill:none;stroke:#222222;stroke-linejoin:bevel;}
	.st158{clip-path:url(#SVGID_34_);}
	.st159{fill:none;stroke:#57CF7D;stroke-linejoin:bevel;}
	.st160{fill:none;stroke:#FF6633;stroke-linejoin:bevel;}
	.st161{fill:none;stroke:#222222;stroke-linejoin:bevel;stroke-miterlimit:10;}
	.st162{fill:none;stroke:#FF6633;stroke-width:0.5;stroke-miterlimit:10;}
	.st163{clip-path:url(#SVGID_36_);}
</style>
<g id="bg_color" class="st0">
	<g class="st1">
		<rect x="0.5" y="0.5" class="st2" width="545" height="263"/>
	</g>
</g>
<g id="margins" class="st0">
	<g class="st1">
		<rect class="st3" width="24" height="264"/>
		<rect x="522" class="st3" width="24" height="264"/>
		<rect class="st4" width="546" height="24"/>
		<rect y="240" class="st4" width="546" height="24"/>
	</g>
</g>
<g id="artwork">
	<g>
		<path class="st21" d="M493.134,37.579h-30l-1.5,1.5v35.85l1.5,1.5h30l1.5-1.5v-35.85L493.134,37.579z M491.634,73.429h-27v-32.85
			h27V73.429z"/>
		<path class="st21" d="M478.029,44.112h-10.005v3h10.005V44.112z"/>
		<path class="st21" d="M488.162,50.382h-20.138v3h20.138V50.382z"/>
		<path class="st21" d="M488.162,56.652h-20.138v3h20.138V56.652z"/>
	</g>
	<g>
		<g>
			<g>
				<line class="st7" x1="261.251" y1="90.831" x2="261.251" y2="137.698"/>
				<g>
					<polygon class="st8" points="257.161,134.385 257.894,133.703 261.25,137.315 264.608,133.703 265.34,134.385 261.25,138.783 
											"/>
				</g>
			</g>
		</g>
		<g>
			<g>
				<line class="st7" x1="242.111" y1="138.783" x2="242.111" y2="91.915"/>
				<g>
					<polygon class="st8" points="246.201,95.229 245.468,95.911 242.112,92.299 238.754,95.911 238.022,95.229 242.112,90.831 
											"/>
				</g>
			</g>
		</g>
	</g>
	<g>
		<g>
			<g>
				<line class="st7" x1="222.374" y1="67.064" x2="105.45" y2="67.064"/>
				<g>
					<polygon class="st8" points="108.764,62.974 109.446,63.707 105.834,67.063 109.446,70.42 108.764,71.153 104.366,67.063 					
						"/>
				</g>
			</g>
		</g>
		<g>
			<g>
				<line class="st7" x1="104.366" y1="47.924" x2="221.289" y2="47.924"/>
				<g>
					<polygon class="st8" points="217.976,52.014 217.293,51.281 220.905,47.925 217.293,44.567 217.976,43.835 222.373,47.925 
											"/>
				</g>
			</g>
		</g>
	</g>
	<g>
		<g>
			<g>
				<line class="st7" x1="398.997" y1="67.064" x2="282.073" y2="67.064"/>
				<g>
					<polygon class="st8" points="285.387,62.974 286.069,63.707 282.457,67.063 286.069,70.42 285.387,71.153 280.989,67.063 					
						"/>
				</g>
			</g>
		</g>
		<g>
			<g>
				<line class="st7" x1="280.989" y1="47.924" x2="397.912" y2="47.924"/>
				<g>
					<polygon class="st8" points="394.599,52.014 393.916,51.281 397.528,47.925 393.916,44.567 394.599,43.835 398.997,47.925 
											"/>
				</g>
			</g>
		</g>
	</g>
	<g>
		<path class="st19" d="M74.503,59h-7.26c-4.208,0.004-8.243,1.677-11.22,4.652c-2.977,2.975-4.651,7.009-4.657,11.218l1.5,1.5h36
			l1.5-1.5c-0.006-4.206-1.679-8.238-4.652-11.213C82.74,60.683,78.709,59.008,74.503,59z M54.456,73.37
			c0.372-3.131,1.879-6.017,4.236-8.112c2.356-2.095,5.399-3.254,8.552-3.258h7.26c3.147,0.013,6.18,1.176,8.528,3.27
			c2.349,2.094,3.85,4.975,4.222,8.1H54.456z"/>
		<path class="st19" d="M70.903,56.93c2.077,0,4.107-0.616,5.834-1.77c1.727-1.154,3.073-2.794,3.867-4.712
			c0.795-1.919,1.003-4.03,0.597-6.067c-0.405-2.037-1.405-3.908-2.874-5.376c-1.468-1.468-3.339-2.468-5.376-2.874
			c-2.037-0.405-4.148-0.197-6.067,0.598s-3.558,2.141-4.712,3.867c-1.154,1.727-1.77,3.757-1.77,5.833
			c0,2.785,1.106,5.456,3.075,7.425C65.448,55.824,68.118,56.93,70.903,56.93z M70.903,38.93c1.483,0,2.933,0.44,4.167,1.264
			c1.233,0.824,2.195,1.995,2.762,3.366c0.568,1.37,0.716,2.878,0.427,4.333c-0.289,1.455-1.004,2.791-2.053,3.84
			c-1.049,1.049-2.385,1.763-3.84,2.053c-1.455,0.289-2.963,0.141-4.333-0.427c-1.37-0.568-2.542-1.529-3.366-2.762
			c-0.824-1.233-1.264-2.683-1.264-4.167c0-1.989,0.79-3.897,2.197-5.303C67.006,39.72,68.914,38.93,70.903,38.93z"/>
	</g>
	<g>
		<path class="st19" d="M445.622,52.401c0.866,0,1.568-0.702,1.568-1.568s-0.702-1.568-1.568-1.568
			c-0.866,0-1.568,0.702-1.568,1.568S444.756,52.401,445.622,52.401z"/>
		<path class="st19" d="M450.497,44.856h-36l-1.5,1.5v9.638l1.5,1.5h36l1.5-1.5v-9.638L450.497,44.856z M448.997,54.494h-33v-6.638
			h33V54.494z"/>
		<path class="st19" d="M445.622,67.086c0.31,0,0.613-0.092,0.871-0.264c0.258-0.172,0.459-0.417,0.577-0.703
			c0.119-0.287,0.15-0.602,0.089-0.906c-0.06-0.304-0.21-0.583-0.429-0.803c-0.219-0.219-0.499-0.368-0.803-0.429
			c-0.304-0.061-0.619-0.029-0.906,0.089c-0.286,0.119-0.531,0.32-0.703,0.577c-0.172,0.258-0.264,0.561-0.264,0.871
			c0,0.416,0.165,0.814,0.459,1.108C444.807,66.921,445.206,67.086,445.622,67.086z"/>
		<path class="st19" d="M414.497,59.534l-1.5,1.5v9.638l1.5,1.5h36l1.5-1.5v-9.638l-1.5-1.5H414.497z M448.997,69.171h-33v-6.638h33
			V69.171z"/>
	</g>
	<g>
		<path class="st19" d="M268.271,174.868l-4.815-3.667l-0.908-0.278h-21.713l-0.893,0.293l-4.957,3.667l-0.615,1.208v28.5
			l0.413,1.035l3.622,3.833l1.095,0.473h23.745l1.028-0.405l4.11-3.833l0.48-1.102v-28.5L268.271,174.868z M265.864,193.925
			l-3.353,3.705h-21.247l-3.893-3.458v-5.58l2.753,2.438h23.715l2.025-2.25V193.925z M240.124,181.835h23.685l2.055-2.1v4.59
			l-3.353,3.705h-21.247l-3.893-3.45v-5.19L240.124,181.835z M241.331,173.923h20.715l3.052,2.333l-2.55,2.61h-21.285l-3-2.67
			L241.331,173.923z M262.669,206.923h-22.5l-2.775-2.932v-5.79l2.752,2.43h23.692l2.025-2.25v5.542L262.669,206.923z"/>
		<path class="st19" d="M260.749,186.41c0.31,0,0.613-0.092,0.871-0.264c0.258-0.172,0.459-0.417,0.577-0.704
			c0.119-0.286,0.15-0.602,0.089-0.906c-0.06-0.304-0.21-0.583-0.429-0.803c-0.219-0.219-0.499-0.368-0.802-0.429
			c-0.304-0.061-0.619-0.029-0.906,0.089c-0.286,0.119-0.531,0.32-0.703,0.577c-0.172,0.258-0.264,0.561-0.264,0.871
			c-0.001,0.206,0.039,0.41,0.117,0.601c0.078,0.191,0.194,0.364,0.34,0.51c0.146,0.146,0.319,0.261,0.51,0.34
			C260.338,186.371,260.542,186.411,260.749,186.41z"/>
		<path class="st19" d="M260.749,192.673c-0.31,0-0.613,0.092-0.871,0.264c-0.258,0.172-0.459,0.417-0.577,0.703
			c-0.119,0.286-0.15,0.602-0.089,0.906c0.06,0.304,0.21,0.583,0.429,0.803c0.219,0.219,0.499,0.368,0.803,0.429
			s0.619,0.029,0.906-0.089c0.286-0.119,0.531-0.32,0.703-0.577c0.172-0.258,0.264-0.561,0.264-0.871
			c0-0.416-0.165-0.814-0.459-1.108C261.563,192.838,261.164,192.673,260.749,192.673z"/>
		<path class="st19" d="M260.749,202.055c-0.31,0-0.613,0.092-0.871,0.264c-0.258,0.172-0.459,0.417-0.577,0.703
			c-0.119,0.286-0.15,0.602-0.089,0.906c0.06,0.304,0.21,0.583,0.429,0.803c0.219,0.219,0.499,0.368,0.803,0.429
			s0.619,0.029,0.906-0.089c0.286-0.119,0.531-0.32,0.703-0.577c0.172-0.258,0.264-0.561,0.264-0.871
			c0-0.416-0.165-0.814-0.459-1.108C261.563,202.22,261.164,202.055,260.749,202.055z"/>
	</g>
	<path class="st19" d="M265.489,37.831h-27.615l-1.5,1.5v36l1.5,1.5h27.615l1.5-1.5v-36L265.489,37.831z M263.989,73.831h-24.615
		v-33h24.615V73.831z"/>
	<path class="st19" d="M244.016,60.653v1.838c-0.021,0.681,0.083,1.36,0.307,2.002c0.182,0.48,0.494,0.901,0.9,1.215
		c0.433,0.304,0.927,0.512,1.448,0.608c0.641,0.118,1.291,0.173,1.942,0.165v-2.003c-0.45,0.026-0.9-0.056-1.312-0.24
		c-0.149-0.077-0.28-0.183-0.387-0.312c-0.107-0.129-0.187-0.278-0.235-0.438c-0.125-0.4-0.184-0.818-0.173-1.237v-2.34
		c0.004-0.354-0.06-0.705-0.188-1.035c-0.143-0.345-0.382-0.642-0.69-0.855c-0.44-0.284-0.932-0.478-1.447-0.57h-0.105v-0.278h0.105
		c0.517-0.099,1.009-0.3,1.447-0.592c0.308-0.213,0.547-0.51,0.69-0.855c0.128-0.332,0.192-0.686,0.188-1.042v-2.378
		c-0.011-0.419,0.047-0.837,0.173-1.237c0.048-0.16,0.128-0.309,0.235-0.438c0.107-0.129,0.238-0.235,0.387-0.312
		c0.414-0.177,0.863-0.257,1.312-0.233v-1.98c-0.652-0.009-1.303,0.049-1.942,0.173c-0.521,0.09-1.016,0.295-1.448,0.6
		c-0.406,0.314-0.718,0.735-0.9,1.215c-0.222,0.638-0.326,1.312-0.307,1.987v1.845c0.058,0.588-0.117,1.175-0.488,1.635
		c-0.239,0.194-0.513,0.338-0.808,0.426c-0.295,0.088-0.604,0.116-0.91,0.084v2.43c0.616-0.067,1.234,0.114,1.717,0.503
		C243.903,59.467,244.079,60.061,244.016,60.653z"/>
	<path class="st19" d="M258.139,65.708c0.406-0.314,0.718-0.735,0.9-1.215c0.224-0.643,0.328-1.322,0.307-2.002v-1.838
		c-0.059-0.588,0.117-1.175,0.487-1.635c0.239-0.193,0.514-0.337,0.808-0.423c0.295-0.086,0.604-0.113,0.909-0.079v-2.43
		c-0.306,0.033-0.615,0.005-0.91-0.083c-0.295-0.088-0.569-0.233-0.808-0.427c-0.371-0.46-0.546-1.047-0.487-1.635v-1.86
		c0.02-0.681-0.084-1.359-0.307-2.003c-0.182-0.48-0.494-0.901-0.9-1.215c-0.432-0.305-0.926-0.51-1.447-0.6
		c-0.64-0.124-1.291-0.182-1.943-0.173v2.01c0.449-0.024,0.898,0.056,1.312,0.232c0.149,0.077,0.28,0.183,0.387,0.312
		c0.107,0.129,0.187,0.278,0.235,0.438c0.125,0.4,0.184,0.818,0.172,1.237v2.37c-0.004,0.356,0.059,0.71,0.188,1.042
		c0.144,0.343,0.384,0.637,0.69,0.847c0.431,0.281,0.912,0.474,1.418,0.57h0.105v0.278h-0.105c-0.505,0.096-0.987,0.289-1.418,0.57
		c-0.307,0.213-0.547,0.509-0.69,0.855c-0.128,0.33-0.191,0.681-0.188,1.035v2.393c0.011,0.419-0.047,0.837-0.172,1.237
		c-0.048,0.16-0.128,0.309-0.235,0.438c-0.107,0.129-0.239,0.235-0.387,0.312c-0.412,0.184-0.862,0.266-1.312,0.24v1.973
		c0.651,0.013,1.301-0.038,1.943-0.15C257.213,66.23,257.707,66.018,258.139,65.708z"/>
	<circle class="st10" cx="251.617" cy="190.426" r="37.643"/>
</g>
<g id="Layer_4">
</g>
</svg>
