<svg width="449" height="400" viewBox="0 0 449 400" fill="none" xmlns="http://www.w3.org/2000/svg">
<path d="M203.951 27.769C110.372 27.769 34.241 103.901 34.241 197.48C34.241 291.059 110.372 367.191 203.951 367.191C297.53 367.191 373.662 291.059 373.662 197.48C373.662 103.901 297.531 27.769 203.951 27.769ZM203.951 368.691C109.545 368.691 32.741 291.891 32.741 197.48C32.741 103.069 109.541 26.269 203.951 26.269C298.361 26.269 375.162 103.074 375.162 197.48C375.162 291.886 298.358 368.691 203.951 368.691V368.691Z" fill="#FF6633"/>
<path d="M203.951 42C118.221 42 48.474 111.749 48.474 197.48C48.474 283.211 118.221 352.958 203.951 352.958C289.681 352.958 359.429 283.211 359.429 197.48C359.429 111.749 289.682 42 203.951 42ZM203.951 354.456C117.393 354.456 46.974 284.036 46.974 197.478C46.974 110.92 117.393 40.5 203.951 40.5C290.509 40.5 360.929 110.92 360.929 197.478C360.929 284.036 290.51 354.458 203.951 354.458V354.456Z" fill="#FE7035"/>
<path d="M203.951 56.2351C126.069 56.2351 62.707 119.597 62.707 197.48C62.707 275.363 126.069 338.725 203.951 338.725C281.833 338.725 345.2 275.363 345.2 197.48C345.2 119.597 281.834 56.2351 203.951 56.2351ZM203.951 340.225C125.242 340.225 61.207 276.19 61.207 197.48C61.207 118.77 125.242 54.7351 203.951 54.7351C282.66 54.7351 346.7 118.77 346.7 197.48C346.7 276.19 282.661 340.225 203.951 340.225Z" fill="#FE7A37"/>
<path d="M203.951 70.4681C178.83 70.4681 154.274 77.9172 133.387 91.8735C112.5 105.83 96.2205 125.666 86.6072 148.875C76.994 172.083 74.4787 197.621 79.3795 222.259C84.2803 246.897 96.377 269.528 114.14 287.291C131.903 305.054 154.534 317.151 179.172 322.052C203.81 326.952 229.348 324.437 252.556 314.824C275.765 305.211 295.601 288.931 309.558 268.044C323.514 247.157 330.963 222.601 330.963 197.48C330.925 163.806 317.531 131.522 293.72 107.711C269.909 83.8997 237.625 70.5059 203.951 70.4681V70.4681ZM203.951 325.992C178.534 325.992 153.687 318.455 132.554 304.334C111.42 290.213 94.9482 270.142 85.2214 246.659C75.4946 223.177 72.9497 197.338 77.9083 172.409C82.867 147.48 95.1066 124.581 113.079 106.608C131.052 88.6356 153.951 76.3961 178.88 71.4374C203.808 66.4787 229.648 69.0237 253.13 78.7505C276.613 88.4772 296.684 104.949 310.805 126.083C324.926 147.216 332.463 172.063 332.463 197.48C332.425 231.552 318.873 264.217 294.78 288.309C270.688 312.402 238.023 325.954 203.951 325.992V325.992Z" fill="#FD8439"/>
<path d="M203.951 84.7C181.645 84.7 159.841 91.3144 141.294 103.707C122.748 116.099 108.293 133.713 99.7569 154.32C91.2209 174.928 88.9874 197.604 93.3389 219.481C97.6905 241.358 108.432 261.453 124.204 277.225C139.976 292.998 160.071 303.739 181.948 308.091C203.825 312.443 226.501 310.209 247.109 301.673C267.717 293.138 285.33 278.683 297.723 260.136C310.115 241.59 316.73 219.786 316.73 197.48C316.697 167.579 304.804 138.913 283.661 117.77C262.518 96.6266 233.852 84.7336 203.951 84.7V84.7ZM203.951 311.758C181.349 311.758 159.254 305.056 140.461 292.498C121.668 279.941 107.02 262.093 98.3709 241.211C89.7214 220.33 87.4583 197.352 91.8679 175.184C96.2775 153.016 107.162 132.653 123.144 116.671C139.126 100.689 159.489 89.8051 181.657 85.3957C203.825 80.9864 226.803 83.2496 247.684 91.8993C268.566 100.549 286.414 115.197 298.971 133.99C311.528 152.783 318.23 174.878 318.23 197.48C318.196 227.778 306.145 256.826 284.721 278.25C263.297 299.674 234.249 311.725 203.951 311.759V311.758Z" fill="#FD8F3B"/>
<path d="M203.951 98.9341C184.461 98.9347 165.408 104.715 149.203 115.544C132.997 126.372 120.367 141.763 112.909 159.77C105.45 177.777 103.499 197.591 107.302 216.707C111.105 235.823 120.491 253.382 134.273 267.164C148.055 280.945 165.614 290.331 184.73 294.133C203.846 297.935 223.66 295.983 241.667 288.524C259.673 281.066 275.064 268.435 285.892 252.229C296.72 236.023 302.5 216.971 302.5 197.48C302.471 171.353 292.078 146.304 273.603 127.829C255.128 109.354 230.079 98.9627 203.951 98.9341V98.9341ZM203.951 297.526C184.164 297.526 164.821 291.657 148.369 280.664C131.917 269.67 119.094 254.045 111.523 235.764C103.951 217.483 101.97 197.367 105.831 177.96C109.691 158.553 119.22 140.727 133.212 126.736C147.204 112.744 165.03 103.216 184.437 99.3563C203.844 95.4962 223.96 97.4776 242.241 105.05C260.521 112.622 276.146 125.445 287.139 141.898C298.132 158.35 304 177.693 304 197.48C303.97 224.005 293.42 249.435 274.663 268.191C255.907 286.947 230.476 297.497 203.951 297.526Z" fill="#FC993D"/>
<path d="M203.951 113.167C187.275 113.167 170.974 118.112 157.109 127.376C143.244 136.641 132.437 149.809 126.056 165.215C119.674 180.621 118.005 197.574 121.258 213.929C124.511 230.284 132.541 245.307 144.333 257.098C156.124 268.89 171.147 276.92 187.502 280.173C203.857 283.426 220.81 281.757 236.216 275.375C251.622 268.994 264.79 258.187 274.055 244.322C283.319 230.457 288.264 214.156 288.264 197.48C288.239 175.127 279.347 153.696 263.541 137.89C247.735 122.084 226.304 113.192 203.951 113.167V113.167ZM203.951 283.293C186.979 283.293 170.388 278.26 156.276 268.831C142.164 259.402 131.165 246 124.67 230.319C118.175 214.639 116.476 197.385 119.787 180.739C123.098 164.093 131.271 148.802 143.272 136.801C155.273 124.8 170.564 116.627 187.21 113.316C203.856 110.005 221.11 111.704 236.79 118.199C252.47 124.694 265.873 135.693 275.302 149.805C284.731 163.917 289.764 180.508 289.764 197.48C289.738 220.231 280.689 242.043 264.601 258.13C248.514 274.218 226.702 283.267 203.951 283.293Z" fill="#FCA33F"/>
<path d="M203.951 127.4C190.09 127.4 176.541 131.51 165.017 139.211C153.492 146.911 144.51 157.856 139.206 170.661C133.901 183.467 132.514 197.558 135.218 211.152C137.922 224.746 144.596 237.233 154.397 247.034C164.198 256.835 176.685 263.509 190.279 266.213C203.873 268.917 217.964 267.53 230.769 262.225C243.575 256.921 254.52 247.939 262.22 236.414C269.921 224.89 274.031 211.34 274.031 197.48C274.01 178.9 266.62 161.087 253.482 147.949C240.344 134.811 222.531 127.421 203.951 127.4ZM203.951 269.06C189.794 269.06 175.955 264.862 164.183 256.997C152.412 249.131 143.237 237.952 137.82 224.872C132.402 211.793 130.984 197.401 133.746 183.515C136.508 169.63 143.326 156.876 153.336 146.865C163.347 136.855 176.101 130.037 189.986 127.275C203.872 124.513 218.264 125.931 231.343 131.349C244.423 136.766 255.602 145.941 263.468 157.712C271.333 169.483 275.531 183.323 275.531 197.48C275.51 216.458 267.961 234.652 254.542 248.071C241.123 261.49 222.929 269.038 203.951 269.06V269.06Z" fill="#FBAD41"/>
<path d="M379.827 159.706C379.827 109.13 335.05 75.606 299.571 75.606C261.404 75.606 224.411 99.3449 214.859 136.706C181.022 130.172 145.334 157.397 145.334 197.072C145.334 234.591 177.684 258.065 199.101 258.065H392.347C416.406 258.065 438.209 234.954 438.209 211.024C438.209 176.767 412.894 155.428 379.827 159.706Z" fill="#003682"/>
<path d="M355.431 167.333C355.431 130.77 323.059 106.533 297.41 106.533C269.817 106.533 243.074 123.695 236.168 150.705C211.706 145.981 185.905 165.663 185.905 194.346C185.905 221.47 209.293 238.44 224.776 238.44H364.482C381.875 238.44 397.637 221.732 397.637 204.432C397.637 179.667 379.336 164.241 355.431 167.333Z" fill="#0055DC"/>
<path d="M330.9 174.915C330.9 152.442 311 137.542 295.237 137.542C278.277 137.542 261.837 148.091 257.594 164.693C242.559 161.793 226.7 173.887 226.7 191.517C226.7 208.189 241.076 218.617 250.592 218.617H336.463C347.154 218.617 356.842 208.347 356.842 197.717C356.842 182.5 345.593 173.015 330.9 174.915Z" fill="#C5EBF5"/>
<path d="M315.969 179.76C315.969 165.815 303.623 156.57 293.841 156.57C283.317 156.57 273.118 163.116 270.484 173.417C261.154 171.617 251.314 179.122 251.314 190.061C251.314 200.406 260.234 206.878 266.139 206.878H319.421C326.055 206.878 332.067 200.506 332.067 193.908C332.067 184.464 325.087 178.581 315.969 179.76Z" fill="white"/>
<path d="M138.478 74.218C158.697 74.218 175.087 57.8276 175.087 37.609C175.087 17.3904 158.697 1 138.478 1C118.259 1 101.869 17.3904 101.869 37.609C101.869 57.8276 118.259 74.218 138.478 74.218Z" fill="white"/>
<path d="M138.478 74.969C131.089 74.9692 123.866 72.7783 117.722 68.6732C111.578 64.5682 106.789 58.7334 103.961 51.9068C101.133 45.0802 100.393 37.5683 101.835 30.3211C103.276 23.0739 106.834 16.4169 112.059 11.1919C117.284 5.96689 123.941 2.4086 131.188 0.966975C138.435 -0.47465 145.947 0.265145 152.774 3.09281C159.601 5.92047 165.435 10.709 169.541 16.8528C173.646 22.9967 175.837 30.2199 175.837 37.609C175.826 47.5141 171.887 57.0105 164.883 64.0145C157.879 71.0185 148.383 74.9582 138.478 74.969ZM138.478 1.75004C131.385 1.74984 124.452 3.85285 118.555 7.79312C112.658 11.7334 108.061 17.334 105.347 23.8866C102.633 30.4391 101.922 37.6495 103.306 44.6057C104.69 51.562 108.105 57.9517 113.12 62.9669C118.135 67.9821 124.525 71.3974 131.481 72.781C138.438 74.1647 145.648 73.4544 152.201 70.7402C158.753 68.0259 164.354 63.4295 168.294 57.5322C172.234 51.6349 174.337 44.7016 174.337 37.609C174.326 28.102 170.545 18.9874 163.822 12.2649C157.1 5.54237 147.985 1.76089 138.478 1.75004V1.75004Z" fill="#FF6633"/>
<path d="M125.6 49.9891V43.7711C125.6 40.2131 124.43 38.9471 120.824 38.9471V36.0291C124.43 36.0291 125.6 34.7641 125.6 31.2051V24.9871C125.6 19.5061 127.6 16.9741 133.1 16.9741V19.4101C129.51 19.4101 128.26 21.1241 128.26 24.9871V32.0551C128.26 34.7951 127.474 36.6071 124.494 37.3441V37.6331C127.474 38.3691 128.26 40.1811 128.26 42.9221V49.9891C128.26 53.8521 129.51 55.5671 133.1 55.5671V58.0001C127.608 58.0001 125.6 55.4701 125.6 49.9891Z" fill="#0055DC"/>
<path d="M151.762 24.9871V31.2051C151.762 34.7641 152.932 36.0291 156.538 36.0291V38.9471C152.932 38.9471 151.762 40.2131 151.762 43.7711V49.9891C151.762 55.4701 149.762 58.0031 144.262 58.0031V55.5671C147.852 55.5671 149.103 53.8521 149.103 49.9891V42.9221C149.103 40.1811 149.888 38.3691 152.869 37.6331V37.3441C149.888 36.6071 149.103 34.7951 149.103 32.0551V24.9871C149.103 21.1241 147.852 19.4101 144.262 19.4101V16.9741C149.759 16.9741 151.762 19.5061 151.762 24.9871Z" fill="#0055DC"/>
<path d="M47.4 161.147C67.6186 161.147 84.009 144.757 84.009 124.538C84.009 104.319 67.6186 87.929 47.4 87.929C27.1814 87.929 10.791 104.319 10.791 124.538C10.791 144.757 27.1814 161.147 47.4 161.147Z" fill="white"/>
<path d="M47.4 161.9C40.0109 161.9 32.7876 159.709 26.6436 155.604C20.4997 151.499 15.711 145.664 12.8832 138.838C10.0553 132.011 9.31533 124.499 10.7568 117.252C12.1982 110.005 15.7563 103.348 20.9812 98.1228C26.206 92.8978 32.8629 89.3395 40.1101 87.8979C47.3572 86.4563 54.8691 87.1961 61.6958 90.0237C68.5225 92.8514 74.3574 97.6399 78.4627 103.784C82.5679 109.928 84.759 117.151 84.759 124.54C84.7484 134.445 80.809 143.941 73.8052 150.945C66.8013 157.949 57.3051 161.889 47.4 161.9V161.9ZM47.4 88.6809C40.3075 88.6809 33.3742 90.7842 27.477 94.7247C21.5797 98.6651 16.9835 104.266 14.2694 110.819C11.5553 117.371 10.8454 124.582 12.2293 131.538C13.6132 138.494 17.0288 144.884 22.0442 149.899C27.0596 154.914 33.4496 158.329 40.4059 159.712C47.3623 161.096 54.5726 160.385 61.1251 157.67C67.6776 154.956 73.278 150.359 77.218 144.462C81.158 138.564 83.2606 131.631 83.26 124.538C83.2492 115.031 79.4676 105.916 72.7448 99.1934C66.0221 92.4709 56.9073 88.6895 47.4 88.6789V88.6809Z" fill="#FF6633"/>
<path d="M47.628 117.5C46.2 117.5 44.8041 117.923 43.6168 118.717C42.4295 119.51 41.5041 120.638 40.9576 121.957C40.4111 123.276 40.2682 124.728 40.5468 126.129C40.8253 127.529 41.513 128.816 42.5227 129.825C43.5324 130.835 44.8189 131.523 46.2195 131.801C47.62 132.08 49.0717 131.937 50.391 131.39C51.7103 130.844 52.8379 129.919 53.6312 128.731C54.4246 127.544 54.848 126.148 54.848 124.72C54.8456 122.806 54.0842 120.971 52.7307 119.617C51.3772 118.264 49.5422 117.502 47.628 117.5V117.5ZM47.628 129.052C46.7712 129.052 45.9337 128.798 45.2213 128.322C44.5089 127.846 43.9537 127.169 43.6258 126.378C43.2979 125.586 43.2121 124.715 43.3793 123.875C43.5464 123.035 43.959 122.263 44.5648 121.657C45.1707 121.051 45.9426 120.638 46.7829 120.471C47.6232 120.304 48.4942 120.39 49.2858 120.718C50.0774 121.046 50.7539 121.601 51.23 122.313C51.706 123.026 51.96 123.863 51.96 124.72C51.9584 125.868 51.5015 126.969 50.6895 127.781C49.8774 128.593 48.7765 129.05 47.628 129.052V129.052Z" fill="#0055DC"/>
<path d="M60.555 124.729L65.927 119.534L61.247 111.428L54.212 113.441L52.331 105.918H42.971L41.091 113.441L34.056 111.428L29.376 119.534L34.776 124.757L29.376 129.98L34.056 138.086L41.123 136.063L42.971 143.456H52.331L54.183 136.048L61.305 138.086L65.985 129.979L60.555 124.729ZM59.932 134.689L53.6 132.877L51.665 134.213L50.076 140.568H45.226L43.638 134.215L41.764 132.876L35.429 134.689L33 130.488L37.722 125.923V123.591L33 119.026L35.425 114.826L41.772 116.642L43.637 115.148L45.222 108.807H50.072L51.658 115.148L53.523 116.642L59.87 114.826L62.294 119.026L57.568 123.596L57.635 125.928L62.353 130.489L59.932 134.689Z" fill="#0055DC"/>
<path d="M47.4 306.733C67.6186 306.733 84.009 290.342 84.009 270.124C84.009 249.905 67.6186 233.515 47.4 233.515C27.1814 233.515 10.791 249.905 10.791 270.124C10.791 290.342 27.1814 306.733 47.4 306.733Z" fill="white"/>
<path d="M47.4 307.484C40.0109 307.484 32.7876 305.293 26.6436 301.188C20.4997 297.083 15.711 291.248 12.8832 284.422C10.0553 277.595 9.31533 270.083 10.7568 262.836C12.1982 255.589 15.7563 248.932 20.9812 243.707C26.206 238.482 32.8629 234.923 40.1101 233.482C47.3572 232.04 54.8691 232.78 61.6958 235.608C68.5225 238.435 74.3574 243.224 78.4627 249.368C82.5679 255.512 84.759 262.735 84.759 270.124C84.7484 280.029 80.809 289.525 73.8052 296.529C66.8013 303.533 57.3051 307.473 47.4 307.484V307.484ZM47.4 234.265C40.3075 234.265 33.3743 236.368 27.4772 240.308C21.58 244.249 16.9837 249.85 14.2696 256.402C11.5555 262.955 10.8454 270.165 12.2291 277.121C13.6129 284.077 17.0283 290.467 22.0435 295.482C27.0587 300.497 33.4485 303.912 40.4047 305.296C47.3609 306.68 54.5712 305.969 61.1237 303.255C67.6763 300.541 73.2768 295.944 77.217 290.047C81.1572 284.15 83.2602 277.216 83.26 270.124C83.2492 260.617 79.4676 251.502 72.7448 244.779C66.0221 238.057 56.9073 234.276 47.4 234.265V234.265Z" fill="#FF6633"/>
<path d="M39.377 269.044L30.794 264.215L39.377 259.385V255.768L26.808 262.841V265.588L39.377 272.661V269.044Z" fill="#0055DC"/>
<path d="M55.499 268.258V271.875L64.007 276.662L55.499 281.449V285.066L67.993 278.036V275.288L55.499 268.258Z" fill="#0055DC"/>
<path d="M55.062 249.638L36.066 290.61H39.54L58.537 249.638H55.062Z" fill="#0055DC"/>
<path d="M159.882 399C180.101 399 196.491 382.61 196.491 362.391C196.491 342.172 180.101 325.782 159.882 325.782C139.663 325.782 123.273 342.172 123.273 362.391C123.273 382.61 139.663 399 159.882 399Z" fill="white"/>
<path d="M159.882 399.75C152.493 399.75 145.27 397.559 139.126 393.454C132.982 389.348 128.193 383.514 125.366 376.687C122.538 369.86 121.798 362.348 123.24 355.101C124.682 347.854 128.24 341.197 133.465 335.972C138.69 330.747 145.347 327.189 152.594 325.748C159.841 324.306 167.353 325.046 174.18 327.874C181.006 330.702 186.841 335.491 190.946 341.635C195.051 347.779 197.242 355.002 197.242 362.391C197.231 372.296 193.291 381.792 186.287 388.796C179.283 395.8 169.787 399.739 159.882 399.75V399.75ZM159.882 326.531C152.79 326.531 145.856 328.634 139.959 332.575C134.062 336.515 129.466 342.115 126.752 348.668C124.038 355.221 123.327 362.431 124.711 369.387C126.095 376.343 129.51 382.733 134.525 387.748C139.54 392.763 145.93 396.178 152.886 397.562C159.842 398.946 167.052 398.236 173.605 395.521C180.158 392.807 185.758 388.211 189.698 382.314C193.639 376.417 195.742 369.483 195.742 362.391C195.731 352.884 191.95 343.769 185.227 337.046C178.504 330.323 169.389 326.542 159.882 326.531V326.531Z" fill="#FF6633"/>
<path d="M177.869 351.572C177.865 350.364 177.434 349.196 176.652 348.276C175.87 347.355 174.787 346.741 173.596 346.542C172.404 346.343 171.181 346.572 170.142 347.188C169.103 347.805 168.316 348.769 167.92 349.91L151.461 349.858C151.382 348.918 151.044 348.017 150.484 347.257C149.925 346.497 149.166 345.907 148.291 345.552C147.417 345.197 146.461 345.091 145.53 345.246C144.599 345.401 143.729 345.81 143.017 346.43C142.305 347.049 141.778 347.853 141.494 348.753C141.211 349.654 141.183 350.615 141.413 351.53C141.642 352.446 142.121 353.28 142.796 353.939C143.47 354.599 144.315 355.06 145.235 355.269L148.135 372.444C147.391 372.889 146.773 373.515 146.338 374.265C145.903 375.014 145.666 375.862 145.649 376.728C145.632 377.594 145.835 378.45 146.24 379.216C146.645 379.982 147.238 380.633 147.963 381.106C148.689 381.58 149.523 381.862 150.387 381.925C151.251 381.987 152.117 381.829 152.903 381.465C153.689 381.101 154.37 380.544 154.881 379.844C155.393 379.145 155.718 378.327 155.826 377.467L166.209 374.453C166.64 375.142 167.23 375.718 167.929 376.133C168.627 376.548 169.415 376.79 170.226 376.84C171.037 376.89 171.849 376.746 172.593 376.419C173.337 376.092 173.992 375.593 174.505 374.962C175.017 374.332 175.372 373.588 175.54 372.793C175.707 371.997 175.682 371.174 175.468 370.39C175.253 369.606 174.854 368.885 174.305 368.286C173.756 367.687 173.071 367.228 172.309 366.946L173.879 356.546C175.01 356.292 176.02 355.662 176.745 354.758C177.47 353.854 177.867 352.731 177.869 351.572V351.572ZM150.982 352.485L167.729 352.537C167.769 352.728 167.815 352.912 167.867 353.095L159.113 358.566C158.386 357.921 157.489 357.498 156.528 357.347C155.568 357.195 154.585 357.322 153.694 357.712L150.503 353.286C150.685 353.033 150.845 352.765 150.982 352.485ZM143.882 350.285C143.882 349.793 144.028 349.311 144.302 348.902C144.575 348.492 144.964 348.173 145.419 347.985C145.874 347.796 146.375 347.747 146.858 347.843C147.341 347.939 147.785 348.176 148.133 348.525C148.481 348.873 148.718 349.317 148.814 349.8C148.91 350.283 148.861 350.784 148.672 351.239C148.484 351.694 148.164 352.082 147.755 352.356C147.345 352.629 146.864 352.775 146.371 352.775C146.044 352.775 145.72 352.71 145.418 352.585C145.116 352.46 144.842 352.276 144.611 352.045C144.379 351.814 144.196 351.539 144.071 351.237C143.946 350.935 143.882 350.611 143.882 350.284V350.285ZM147.882 355.172C148.082 355.111 148.277 355.036 148.467 354.948L151.639 359.355C150.829 360.437 150.482 361.796 150.673 363.134C150.865 364.472 151.579 365.679 152.66 366.49C152.726 366.539 152.793 366.59 152.86 366.632L151.166 371.732H150.68L147.882 355.172ZM153.248 376.845C153.247 377.506 152.984 378.139 152.516 378.606C152.048 379.073 151.414 379.335 150.753 379.335C150.092 379.334 149.459 379.071 148.992 378.604C148.524 378.136 148.262 377.502 148.262 376.842C148.262 376.181 148.524 375.547 148.992 375.079C149.459 374.612 150.092 374.349 150.753 374.349C151.414 374.348 152.048 374.61 152.516 375.077C152.984 375.544 153.247 376.177 153.248 376.838V376.845ZM153.248 362.403C153.245 361.911 153.389 361.429 153.66 361.018C153.932 360.607 154.319 360.286 154.773 360.095C155.227 359.905 155.727 359.853 156.211 359.947C156.694 360.04 157.139 360.275 157.488 360.622C157.838 360.968 158.077 361.411 158.176 361.893C158.274 362.375 158.227 362.876 158.041 363.332C157.855 363.788 157.537 364.178 157.129 364.453C156.721 364.729 156.24 364.877 155.748 364.879H155.735C155.077 364.879 154.446 364.617 153.98 364.153C153.514 363.688 153.251 363.058 153.248 362.4V362.403ZM165.47 371.722V371.932L155.47 374.855C155.086 373.95 154.45 373.175 153.638 372.622L155.338 367.506H155.732C157.062 367.505 158.339 366.984 159.291 366.054L165.859 369.754C165.602 370.378 165.47 371.046 165.47 371.721V371.722ZM160.649 363.808C160.78 363.351 160.847 362.878 160.849 362.403C160.846 361.842 160.751 361.285 160.567 360.754L169.275 355.316C169.837 355.842 170.511 356.235 171.245 356.466L169.715 366.691C168.893 366.825 168.116 367.162 167.456 367.67L160.649 363.808ZM173.069 371.748C173.065 372.408 172.8 373.039 172.331 373.503C171.862 373.968 171.229 374.227 170.569 374.224H170.556L170.582 374.237C170.09 374.237 169.609 374.091 169.199 373.817C168.79 373.544 168.471 373.155 168.283 372.7C168.095 372.245 168.046 371.745 168.142 371.262C168.238 370.779 168.475 370.336 168.823 369.988C169.171 369.64 169.615 369.403 170.098 369.307C170.581 369.211 171.081 369.26 171.536 369.449C171.99 369.637 172.379 369.956 172.653 370.365C172.926 370.775 173.072 371.256 173.072 371.748H173.069ZM170.29 351.606C170.29 351.114 170.436 350.632 170.709 350.222C170.983 349.813 171.371 349.494 171.826 349.305C172.281 349.116 172.782 349.067 173.265 349.163C173.748 349.259 174.192 349.496 174.54 349.844C174.889 350.192 175.126 350.636 175.222 351.119C175.318 351.602 175.269 352.103 175.081 352.558C174.892 353.013 174.573 353.402 174.163 353.675C173.754 353.949 173.272 354.095 172.78 354.095C172.12 354.095 171.486 353.833 171.019 353.366C170.552 352.899 170.29 352.266 170.29 351.605V351.606Z" fill="#0055DC"/>
<path d="M309.299 369.882C329.518 369.882 345.908 353.492 345.908 333.273C345.908 313.054 329.518 296.664 309.299 296.664C289.08 296.664 272.69 313.054 272.69 333.273C272.69 353.492 289.08 369.882 309.299 369.882Z" fill="white"/>
<path d="M309.3 370.633C301.911 370.633 294.688 368.442 288.544 364.337C282.4 360.232 277.612 354.397 274.784 347.57C271.956 340.743 271.216 333.232 272.658 325.985C274.099 318.737 277.658 312.08 282.882 306.856C288.107 301.631 294.764 298.073 302.011 296.631C309.259 295.189 316.77 295.929 323.597 298.757C330.424 301.585 336.259 306.373 340.364 312.517C344.469 318.661 346.66 325.884 346.66 333.273C346.649 343.178 342.71 352.675 335.706 359.679C328.702 366.683 319.205 370.623 309.3 370.633V370.633ZM309.3 297.414C302.208 297.414 295.274 299.517 289.377 303.458C283.48 307.398 278.884 312.999 276.17 319.551C273.455 326.104 272.745 333.314 274.129 340.27C275.513 347.227 278.928 353.616 283.944 358.631C288.959 363.646 295.348 367.062 302.305 368.445C309.261 369.829 316.471 369.118 323.024 366.404C329.576 363.69 335.177 359.093 339.117 353.196C343.057 347.299 345.16 340.366 345.16 333.273C345.149 323.766 341.368 314.651 334.645 307.929C327.922 301.206 318.807 297.425 309.3 297.414Z" fill="#FF6633"/>
<path d="M323.278 327.509H319.5V320.534C319.5 317.843 318.431 315.262 316.528 313.359C314.625 311.456 312.044 310.387 309.353 310.387C306.662 310.387 304.081 311.456 302.178 313.359C300.275 315.262 299.206 317.843 299.206 320.534V327.509H295.425L293.839 329.095V349.986L295.425 351.573H323.28L324.867 349.986V329.1L323.278 327.509ZM302.378 320.534C302.378 318.684 303.113 316.91 304.421 315.603C305.729 314.295 307.502 313.56 309.352 313.56C311.202 313.56 312.975 314.295 314.283 315.603C315.591 316.91 316.326 318.684 316.326 320.534V327.509H302.377L302.378 320.534ZM321.692 348.4H297.01V330.682H321.692V348.4Z" fill="#0055DC"/>
<path d="M309.351 334C308.659 333.998 307.986 334.23 307.443 334.659C306.9 335.088 306.518 335.688 306.36 336.361C306.202 337.035 306.276 337.743 306.571 338.369C306.867 338.994 307.365 339.502 307.986 339.808V344.785H310.716V339.808C311.337 339.502 311.835 338.994 312.131 338.369C312.426 337.743 312.5 337.035 312.342 336.361C312.184 335.688 311.802 335.088 311.259 334.659C310.715 334.23 310.043 333.998 309.351 334V334Z" fill="#0055DC"/>
</svg>
