<svg id="Layer_1" data-name="Layer 1" xmlns="http://www.w3.org/2000/svg" viewBox="0 0 449 372"><defs><style>.cls-1{fill:#003486;}.cls-2{fill:#ff5912;}.cls-3{fill:#ff5e12;}.cls-4{fill:#ff6311;}.cls-5{fill:#ff6811;}.cls-6{fill:#ff6d11;}.cls-7{fill:#ff7210;}.cls-8{fill:#ff7710;}.cls-9{fill:#ff7c10;}.cls-10{fill:#ff8110;}.cls-11{fill:#ff860f;}.cls-12{fill:#ff8b0f;}.cls-13{fill:#ff900f;}.cls-14{fill:#ff950e;}.cls-15{fill:#ff9a0e;}.cls-16{fill:#ff9f0e;}.cls-17{fill:#ffa40d;}.cls-18{fill:#ffa90d;}.cls-19,.cls-23{fill:#0050e4;}.cls-20{fill:#bbebf6;}.cls-21{fill:#bcecf7;}.cls-21,.cls-23{fill-rule:evenodd;}.cls-22{fill:#fff;}.cls-24{fill:#ddf5fa;}.cls-25{fill:#ff7b00;}</style></defs><path class="cls-1" d="M380,161.84a68.71,68.71,0,0,0-13.93,1.41,119.09,119.09,0,0,0-232.86-31.64A84.18,84.18,0,1,0,119,298.8H380a68.49,68.49,0,0,0,0-137Z"/><path class="cls-2" d="M354.09,287.47c-10.31,0-36.26-.1-66.31-.21-39.71-.15-84.73-.32-108.32-.32-17.57,0-27.62-7.45-32.61-24.16-4.59-15.38-4.92-37-4.92-70.9,0-31.54,10.53-62.69,28.9-85.49,20-24.76,48-38.4,79.1-38.4,24.78,0,45.54,8.38,61.7,24.91,13.93,14.26,24,34,30,58.61,3.26,13.51,13.55,22.39,28.24,24.37,38,5.12,60,28.24,57.4,60.33C424.62,267.83,396.6,287.47,354.09,287.47ZM249.93,69c-30.74,0-58.55,13.51-78.32,38-18.23,22.62-28.68,53.55-28.68,84.86,0,60.65,0,94.06,36.53,94.06,23.59,0,68.61.17,108.33.32,30,.11,56,.21,66.3.21,41.94,0,69.59-19.29,72.14-50.35,2.6-31.5-19.07-54.2-56.54-59.25-15.11-2-25.71-11.19-29.07-25.12C333.16,120.84,311.45,69,249.93,69Z"/><path class="cls-3" d="M344.25,282.91c-13.38,0-41.3-.1-70.69-.19-34.23-.12-69.62-.23-89.34-.23-34.06,0-35.57-29.06-35.57-89.51,0-29.66,9.92-59,27.2-80.41,18.79-23.29,45.22-36.12,74.43-36.12,23.34,0,42.9,7.9,58.11,23.47,13,13.25,22.71,32.35,28.21,55.21h0C340.78,172.47,355,176.91,363,178c35.68,4.85,56.29,26.58,53.79,56.71-2.46,29.69-28.77,48.15-68.68,48.18Zm-94-205.46c-28.9,0-55.06,12.69-73.65,35.75-17.15,21.26-27,50.34-27,79.78,0,30.77.32,52,4.67,66.44,4.66,15.47,13.6,22.07,29.9,22.07,19.72,0,55.12.11,89.35.23,32.65.11,63.49.21,74.58.18,39.34,0,65.28-18.14,67.69-47.27C418.29,205.09,398,183.77,362.9,179c-14.18-1.94-24.12-10.55-27.27-23.63h0C328.63,126.27,308.24,77.45,250.28,77.45Z"/><path class="cls-4" d="M333.06,278.35c-15.9,0-43.95-.08-71.25-.16-27.76-.08-56.46-.16-72.83-.16-32.18,0-33.61-27.25-33.61-83.94,0-27.8,9.3-55.26,25.51-75.34,17.61-21.82,42.38-33.84,69.75-33.84,21.9,0,40.25,7.41,54.53,22,12.17,12.45,21.31,30.37,26.44,51.81,3.9,16.18,17.12,20.35,24.65,21.39,33.31,4.57,52.55,24.92,50.19,53.09-2.32,27.76-26.93,45-64.22,45.11ZM250.63,85.91c-27.06,0-51.56,11.89-69,33.47-16.07,19.91-25.28,47.14-25.28,74.71,0,56,1.38,82.94,32.61,82.94,16.37,0,45.08.08,72.84.16,33.83.1,68.81.2,80.39.15,36.73-.06,61-17,63.24-44.2,2.3-27.59-16.6-47.52-49.34-52-13.24-1.83-22.53-9.9-25.48-22.15h0C315.43,95.4,274,85.91,250.63,85.91Z"/><path class="cls-5" d="M324,273.79c-16.16,0-42.22-.06-67.63-.11-24.9-.05-48.41-.11-62.67-.11-14.63,0-23.06-6.16-27.33-20-4-13-4.31-32.37-4.31-58.38s8.68-51.53,23.81-70.26c16.44-20.35,39.55-31.55,65.09-31.55,20.45,0,37.59,6.92,50.94,20.58,11.38,11.64,19.92,28.39,24.68,48.41,3.61,15,15.87,18.92,22.85,19.9,31,4.3,48.8,23.25,46.59,49.47-2.17,25.75-25.08,41.86-59.77,42ZM251,94.37c-25.23,0-48.07,11.08-64.31,31.18-15,18.56-23.6,43.94-23.6,69.64,0,52.26,1.31,77.39,30.65,77.39,14.26,0,37.78.05,62.67.1,33.68.07,68.51.15,79.88.09,34.13-.17,56.65-15.92,58.78-41.12,2.16-25.63-15.37-44.17-45.74-48.39C337,181.53,328.38,174,325.64,162.6h0C311.53,103.24,272.81,94.37,251,94.37Z"/><path class="cls-6" d="M308.69,269.25c-17.21,0-40.74,0-62.42-.07-18.91,0-36.57-.06-47.78-.06-28.36,0-29.68-25-29.68-72.83,0-24,8.06-47.81,22.11-65.19,15.26-18.87,36.72-29.26,60.42-29.26,19,0,34.94,6.44,47.36,19.13,10.6,10.85,18.52,26.41,22.91,45h0c3.33,13.87,14.63,17.49,21.06,18.41,28.58,4,45.06,21.59,43,45.85-2,23.8-23.23,38.72-55.31,38.95C326.12,269.23,318.41,269.25,308.69,269.25ZM251.34,102.84c-23.39,0-44.57,10.26-59.64,28.89-13.92,17.21-21.9,40.74-21.9,64.56,0,48.51,1.22,71.83,28.69,71.83,11.21,0,28.87,0,47.78.06,33.93.05,72.38.11,84.07,0,31.52-.23,52.34-14.81,54.32-38,2-23.67-14.12-40.83-42.13-44.78-11.38-1.62-19.35-8.6-21.89-19.16h0C307.63,111.07,271.63,102.84,251.34,102.84Z"/><path class="cls-7" d="M286.51,264.72l-50.77,0-32.5,0c-26.48,0-27.72-23.07-27.72-67.27,0-22.18,7.45-44.09,20.43-60.12,14.08-17.4,33.88-27,55.74-27,17.56,0,32.27,6,43.74,17.7,9.79,10,17.12,24.41,21.19,41.61h0c3,12.72,13.36,16.06,19.26,16.92,26.22,3.75,41.31,19.93,39.39,42.23-1.89,21.84-21.38,35.59-50.86,35.88C318.14,264.7,303.71,264.72,286.51,264.72ZM251.69,111.3c-21.55,0-41.08,9.45-55,26.61-12.84,15.85-20.2,37.53-20.2,59.49,0,43.54,1.19,66.27,26.72,66.27l32.5,0c34.11,0,76.56.07,88.66-.05,28.92-.28,48-13.68,49.87-35,1.88-21.72-12.89-37.49-38.53-41.16-10.47-1.52-17.79-8-20.09-17.67h0C303.59,118.9,270.4,111.3,251.69,111.3Z"/><path class="cls-8" d="M249.42,260.22H208c-24.56,0-25.76-22.3-25.76-61.71,0-20.31,6.83-40.37,18.73-55,12.91-15.93,31.05-24.7,51.07-24.7,16.11,0,29.62,5.47,40.16,16.26,9,9.21,15.71,22.43,19.42,38.21h0c2.73,11.56,12.12,14.63,17.48,15.42,23.84,3.48,37.55,18.28,35.77,38.62-1.74,19.89-19.52,32.46-46.39,32.8C308.83,260.2,277.44,260.22,249.42,260.22ZM252,119.76c-19.71,0-37.58,8.64-50.3,24.33-11.76,14.49-18.5,34.33-18.5,54.41,0,39.89,1.1,60.71,24.76,60.71h15.64c30.66,0,82,0,94.82-.15,26.72-.34,43.7-12.26,45.42-31.89S352.23,193,329,189.64c-9.54-1.42-16.21-7.32-18.3-16.18h0C299.66,126.74,269.21,119.76,252,119.76Z"/><path class="cls-9" d="M212.76,255.76c-22.69,0-23.8-20.3-23.8-56.16,0-18.43,6.21-36.64,17-50,11.74-14.45,28.22-22.4,46.4-22.4,14.67,0,27,5,36.57,14.81,8.21,8.41,14.32,20.44,17.67,34.81h0c1.78,7.62,7.49,12.7,15.68,13.93,21.48,3.25,33.8,16.66,32.17,35s-17.3,29.32-41.94,29.73C298.87,255.73,238.21,255.76,212.76,255.76Zm39.63-127.53c-17.88,0-34.08,7.82-45.63,22C196.08,163.41,190,181.39,190,199.6c0,38.35,2.16,55.16,22.8,55.16,25.44,0,86.1,0,99.76-.25,24.08-.4,39.39-11.17,41-28.82s-10.43-30.76-31.33-33.92c-8.61-1.3-14.62-6.66-16.5-14.7C295.74,134.57,268,128.23,252.39,128.23Z"/><path class="cls-10" d="M217.51,251.3c-20.77,0-21.83-19.23-21.83-50.6,0-16.56,5.59-32.92,15.33-44.89,10.57-13,25.39-20.12,41.74-20.12,24.48,0,42.3,16.32,48.89,44.78h0c1.57,6.78,6.62,11.31,13.88,12.44,19.11,3,30.06,15,28.57,31.38-1.48,16.22-15.5,26.19-37.48,26.65C293.68,251.21,236,251.3,217.51,251.3Zm35.24-114.61c-35.1,0-56.07,32.55-56.07,64,0,33.72,2,49.6,20.83,49.6,18.44,0,76.16-.09,89.07-.36,21.44-.45,35.08-10.07,36.51-25.74s-9.18-27.41-27.73-30.3c-7.67-1.2-13-6-14.7-13.21h0C291.81,142.41,266.84,136.69,252.75,136.69Z"/><path class="cls-11" d="M222.27,246.84c-18.53,0-19.87-17-19.87-45,0-28.34,19-57.66,50.7-57.66,21.87,0,37.74,14.56,43.54,39.94h0C298,190,302.41,194,308.73,195c16.75,2.72,26.31,13.35,25,27.76-1.34,14.24-13.69,23.06-33,23.57C289.73,246.67,240.84,246.84,222.27,246.84ZM253.1,145.15c-31.11,0-49.7,28.81-49.7,56.66,0,27.4,1.27,44,18.87,44,18.57,0,67.44-.18,78.37-.47,18.79-.51,30.78-9,32.06-22.67,1.29-13.84-7.95-24.06-24.13-26.68-6.74-1.1-11.45-5.37-12.9-11.72h0C290,159.42,274.46,145.15,253.1,145.15Z"/><path class="cls-12" d="M227,242.39c-16.67,0-17.91-15.63-17.91-39.48,0-24.72,16.58-50.29,44.33-50.29,19.26,0,33.18,12.79,38.2,35.09h0c1.15,5.09,4.9,8.54,10.3,9.46,14.37,2.45,22.56,11.7,21.35,24.14-1.19,12.26-11.87,19.93-28.56,20.5C285.45,242.13,244.17,242.39,227,242.39Zm26.42-88.78c-27.13,0-43.33,25.07-43.33,49.3,0,32.93,5.21,38.48,16.91,38.48,17.13,0,58.39-.26,67.67-.58,16.15-.55,26.47-7.88,27.61-19.59,1.15-11.88-6.72-20.71-20.53-23.06-5.82-1-9.86-4.72-11.1-10.23h0C285.77,166.12,272.2,153.61,253.45,153.61Z"/><path class="cls-13" d="M231.78,237.94c-14.8,0-15.94-14.06-15.94-33.93,0-21.1,14.2-42.93,38-42.93,16.64,0,28.62,11,32.86,30.25h0a10.1,10.1,0,0,0,8.5,8c12,2.19,18.81,10,17.75,20.52-1,10.29-10.05,16.8-24.1,17.42C280.6,237.61,245.07,237.94,231.78,237.94Zm22-75.86c-23.14,0-37,21.32-37,41.93,0,22.31,2.23,32.93,14.94,32.93,13.29,0,48.78-.33,57-.7,13.51-.6,22.17-6.77,23.16-16.52,1-9.91-5.49-17.35-16.94-19.43a11.09,11.09,0,0,1-9.3-8.75h0C281.55,172.82,269.93,162.08,253.8,162.08Z"/><path class="cls-14" d="M236.54,233.48c-11.76,0-14-10-14-28.36,0-17.49,11.82-35.58,31.6-35.58,14,0,24,9.26,27.5,25.41h0a8.16,8.16,0,0,0,6.72,6.48c9.64,1.92,15.05,8.4,14.14,16.91s-8.07,13.65-19.64,14.33C276.26,233.07,248,233.48,236.54,233.48Zm17.62-62.94c-19.16,0-30.61,17.58-30.61,34.58,0,23,4.57,27.36,13,27.36,11.43,0,39.68-.41,46.28-.8,11-.65,17.85-5.56,18.71-13.45s-4.26-14-13.35-15.82a9.12,9.12,0,0,1-7.49-7.25h0C275.93,172.94,260.55,170.54,254.16,170.54Z"/><path class="cls-15" d="M241.29,229c-10,0-12-8.73-12-22.81,0-13.87,9.44-28.21,25.24-28.21,11.25,0,19.53,7.68,22.16,20.56h0a6.22,6.22,0,0,0,4.93,5c7.27,1.65,11.3,6.74,10.53,13.28s-6.3,10.53-15.18,11.26C271.52,228.55,249.86,229,241.29,229Zm13.22-50c-15.17,0-24.24,13.84-24.24,27.22,0,15.9,3,21.81,11,21.81,8.55,0,30.17-.47,35.58-.92,8.36-.68,13.56-4.47,14.27-10.37.71-6.09-2.93-10.65-9.76-12.2a7.22,7.22,0,0,1-5.69-5.77h0C273.17,186.39,265.25,179,254.51,179Z"/><path class="cls-16" d="M246.05,224.57c-8.91,0-10.06-9.22-10.06-17.25,0-10.25,7.06-20.85,18.87-20.85,10.23,0,15.39,8.12,16.82,15.73h0a4.3,4.3,0,0,0,3.16,3.5c5,1.42,7.53,5,6.89,9.67s-4.42,7.4-10.69,8.17C267.16,224,252.61,224.57,246.05,224.57Zm8.81-37.1c-11.19,0-17.87,10.09-17.87,19.85,0,11.39,2.71,16.25,9.06,16.25s21.1-.56,24.86-1c5.79-.71,9.28-3.31,9.84-7.31s-1.75-7.31-6.18-8.58a5.3,5.3,0,0,1-3.87-4.28h0C269.34,195.17,264.48,187.47,254.86,187.47Z"/><path class="cls-17" d="M250.81,220.12c-5.22,0-8.1-4.16-8.1-11.7s5.49-13.49,12.5-13.49c6,0,10.47,4.28,11.47,10.9h0a2.58,2.58,0,0,0,1.45,2,5.35,5.35,0,0,1,3.21,6c-.49,2.56-2.57,4.27-6.2,5.06A106.67,106.67,0,0,1,250.81,220.12Zm4.4-24.19c-7.2,0-11.5,6.35-11.5,12.49,0,4.88,1.23,10.7,7.1,10.7A105.08,105.08,0,0,0,264.93,218c3.2-.7,5-2.13,5.43-4.27a4.35,4.35,0,0,0-2.66-5,3.59,3.59,0,0,1-2-2.78h0C265,201.35,261.82,195.93,255.21,195.93Z"/><path class="cls-18" d="M255.56,215.66a6.13,6.13,0,1,1,6.14-6.13A6.14,6.14,0,0,1,255.56,215.66Zm0-11.27a5.14,5.14,0,1,0,5.14,5.14A5.14,5.14,0,0,0,255.56,204.39Z"/><g id="bottom"><path class="cls-19" d="M275,326.19H22.47c-8.53,0-23-1-23-4.92v-5.82a2.17,2.17,0,0,1,2.28-2H295.67a2.17,2.17,0,0,1,2.28,2v5.81C297.94,324.67,286.41,326.19,275,326.19Zm-273.48-5c.75,1,7.73,3,21,3H275c15.27,0,20.37-2.37,21-3.07v-5.68s-.11-.05-.29-.05H1.78a.44.44,0,0,0-.3.1Zm0,.09Z"/></g><path class="cls-20" d="M1,315.41v5.85h295.4v-5.85a.48.48,0,0,0-.48-.49H1.49A.48.48,0,0,0,1,315.41Z"/><path class="cls-21" d="M254.81,164.05H42.35a10.74,10.74,0,0,0-10.71,10.62V314.41H265.52V174.67A10.73,10.73,0,0,0,254.81,164.05Z"/><path class="cls-19" d="M266.52,315.4H30.65V174.67a11.67,11.67,0,0,1,11.7-11.62H254.81a11.67,11.67,0,0,1,11.71,11.62Zm-233.88-2H264.52V174.67a9.68,9.68,0,0,0-9.71-9.63H42.35a9.8,9.8,0,0,0-9.71,9.63Z"/><rect class="cls-22" x="41.07" y="180.75" width="214.63" height="125.08"/><circle id="webcam" class="cls-19" cx="148.58" cy="172.6" r="1.88"/><path id="touchpad" class="cls-23" d="M180.71,314.92v1.23c0,.94-1.86,1.22-3.26,1.22H119.8c-1.47,0-3.34-.28-3.34-1.22v-1.23Z"/><rect class="cls-19" x="41.07" y="180.75" width="214.63" height="9.74"/><circle class="cls-22" cx="48.66" cy="185.62" r="1.63"/><circle class="cls-22" cx="53.93" cy="185.62" r="1.63"/><circle class="cls-22" cx="59.21" cy="185.62" r="1.63"/><rect class="cls-24" x="50.16" y="200.4" width="83.42" height="50.18"/><rect class="cls-24" x="144.14" y="250.58" width="101.9" height="46.22"/><rect class="cls-24" x="144.14" y="203.98" width="101.9" height="3.99"/><rect class="cls-24" x="144.14" y="212.28" width="101.9" height="3.99"/><rect class="cls-24" x="144.14" y="220.59" width="101.9" height="3.99"/><rect class="cls-24" x="144.14" y="228.89" width="101.9" height="3.99"/><rect class="cls-24" x="144.14" y="237.2" width="84.82" height="3.99"/><rect class="cls-24" x="50.16" y="259.59" width="83.42" height="3.99"/><rect class="cls-24" x="50.16" y="267.89" width="83.42" height="3.99"/><rect class="cls-24" x="50.16" y="276.2" width="83.42" height="3.99"/><rect class="cls-24" x="50.16" y="284.51" width="83.42" height="3.99"/><rect class="cls-24" x="50.16" y="292.81" width="65.19" height="3.99"/><rect class="cls-22" x="103.57" y="232.61" width="90.78" height="31.55"/><path class="cls-19" d="M195.1,264.92H102.82V231.87H195.1Zm-90.78-1.5H193.6V233.36H104.32Z"/><path class="cls-25" d="M128,249.49,124,252l-.75-1.31,4.17-2.26-4.17-2.26.75-1.31,4,2.47-.11-4.73h1.52l-.11,4.73,4-2.47.75,1.31-4.18,2.26,4.18,2.26-.75,1.31-4-2.47.11,4.73h-1.52Z"/><path class="cls-25" d="M141.54,249.49l-4,2.47-.75-1.31,4.17-2.26-4.17-2.26.75-1.31,4,2.47-.11-4.73H143l-.11,4.73,4-2.47.75,1.31-4.18,2.26,4.18,2.26-.75,1.31-4-2.47.11,4.73h-1.52Z"/><path class="cls-25" d="M155.08,249.49,151,252l-.75-1.31,4.17-2.26-4.17-2.26.75-1.31,4,2.47-.11-4.73h1.52l-.11,4.73,4-2.47.75,1.31L157,248.39l4.17,2.26-.75,1.31-4-2.47.11,4.73H155Z"/><path class="cls-25" d="M168.62,249.49l-4,2.47-.75-1.31,4.18-2.26-4.18-2.26.75-1.31,4,2.47-.11-4.73H170l-.11,4.73,4-2.47.75,1.31-4.17,2.26,4.17,2.26L174,252l-4-2.47.11,4.73h-1.52Z"/></svg>