<svg width="48" height="48" viewBox="0 0 48 48" fill="none" xmlns="http://www.w3.org/2000/svg">
<path d="M27.6 8.09247C24.244 8.09073 20.9737 9.1514 18.2575 11.1225C15.5414 13.0936 13.5189 15.8739 12.48 19.065L12.375 19.395H15.3L15.3675 19.2375C16.4486 16.494 18.4221 14.1946 20.9698 12.7098C23.5174 11.2251 26.4909 10.6415 29.4108 11.0531C32.3306 11.4647 35.0268 12.8476 37.0647 14.9789C39.1026 17.1101 40.3635 19.8655 40.644 22.8009C40.9245 25.7363 40.2084 28.6806 38.6111 31.1593C37.0138 33.638 34.6283 35.5065 31.8392 36.4638C29.0502 37.421 26.02 37.4112 23.2372 36.4358C20.4545 35.4605 18.0812 33.5765 16.5 31.0875C16.425 30.975 16.3575 30.8625 16.29 30.7425L16.14 30.48H13.0725L13.2525 30.8475C13.5298 31.4438 13.8481 32.0201 14.205 32.5725C15.6934 34.899 17.7618 36.7979 20.2068 38.0824C22.6518 39.3669 25.3891 39.9927 28.1494 39.8982C30.9096 39.8036 33.5977 38.9921 35.9491 37.5434C38.3005 36.0947 40.2343 34.0587 41.56 31.6359C42.8858 29.213 43.5579 26.4867 43.5102 23.7253C43.4625 20.9638 42.6966 18.2623 41.288 15.8867C39.8794 13.511 37.8765 11.5431 35.4764 10.1765C33.0764 8.80981 30.3619 8.0916 27.6 8.09247Z" fill="#0055DC"/>
<path d="M28.3425 21.8175L22.77 16.245L20.9175 18.0975L24.1575 21.345H0L1.56 23.9625H27.45L28.3425 21.8175Z" fill="#0055DC"/>
<path d="M26.4525 31.785L28.305 33.6375L33.8775 28.065L32.985 25.9125H2.72247L4.27497 28.5375H29.6925L26.4525 31.785Z" fill="#0055DC"/>
</svg>
