<svg width="48" height="48" viewBox="0 0 48 48" fill="none" xmlns="http://www.w3.org/2000/svg">
<path d="M10.875 16.1251C11.7449 16.1251 12.45 15.4199 12.45 14.5501C12.45 13.6802 11.7449 12.9751 10.875 12.9751C10.0052 12.9751 9.30005 13.6802 9.30005 14.5501C9.30005 15.4199 10.0052 16.1251 10.875 16.1251Z" fill="#0055DC"/>
<path d="M15.9 16.1251C16.7698 16.1251 17.475 15.4199 17.475 14.5501C17.475 13.6802 16.7698 12.9751 15.9 12.9751C15.0301 12.9751 14.325 13.6802 14.325 14.5501C14.325 15.4199 15.0301 16.1251 15.9 16.1251Z" fill="#0055DC"/>
<path d="M20.925 16.1251C21.7948 16.1251 22.5 15.4199 22.5 14.5501C22.5 13.6802 21.7948 12.9751 20.925 12.9751C20.0551 12.9751 19.35 13.6802 19.35 14.5501C19.35 15.4199 20.0551 16.1251 20.925 16.1251Z" fill="#0055DC"/>
<path d="M42 8.92505H6L4.5 10.425V40.3501L6 41.8501H42L43.5 40.3501V10.425L42 8.92505ZM40.5 11.925V17.1H7.5V11.925H40.5ZM7.5 38.8501V20.1H40.5V38.8501H7.5Z" fill="#0055DC"/>
<path d="M29.7 27.45L30 27.3001L28.875 25.35L25.05 27.75L25.125 23.175H22.875L22.95 27.75L19.125 25.35L18 27.3001L21.975 29.475L18 31.65L19.125 33.6L22.95 31.2L22.875 35.7H25.125L25.05 31.2L28.875 33.6L30 31.65L26.025 29.475L29.7 27.45Z" fill="#0055DC"/>
</svg>
