<svg width="48" height="48" viewBox="0 0 48 48" fill="none" xmlns="http://www.w3.org/2000/svg">
<path d="M25.5 9.675V7.5H28.395V4.5H19.605V7.5H22.5V9.75C18.1717 10.1363 14.1592 12.1774 11.2982 15.4483C8.43725 18.7192 6.9484 22.9677 7.14172 27.3089C7.33505 31.6502 9.19566 35.7495 12.336 38.7532C15.4764 41.7568 19.6545 43.4332 24 43.4332C28.3456 43.4332 32.5236 41.7568 35.664 38.7532C38.8044 35.7495 40.665 31.6502 40.8583 27.3089C41.0516 22.9677 39.5628 18.7192 36.7018 15.4483C33.8409 12.1774 29.8284 10.1363 25.5 9.75V9.675ZM24 40.35C21.2558 40.35 18.5732 39.5362 16.2915 38.0116C14.0097 36.487 12.2314 34.3201 11.1812 31.7847C10.131 29.2494 9.85625 26.4596 10.3916 23.7681C10.927 21.0766 12.2485 18.6043 14.1889 16.6639C16.1294 14.7234 18.6017 13.402 21.2931 12.8666C23.9846 12.3312 26.7744 12.606 29.3097 13.6562C31.8451 14.7063 34.0121 16.4847 35.5367 18.7665C37.0613 21.0482 37.875 23.7308 37.875 26.475C37.871 30.1537 36.4079 33.6805 33.8067 36.2817C31.2055 38.8829 27.6787 40.346 24 40.35Z" fill="#0055DC"/>
<path d="M30.4971 17.5877L15.3857 32.6096L17.5008 34.7372L32.6121 19.7153L30.4971 17.5877Z" fill="#0055DC"/>
</svg>
