<svg width="48" height="48" viewBox="0 0 48 48" fill="none" xmlns="http://www.w3.org/2000/svg">
<path d="M37.17 20.7075H33.5925V14.115C33.5925 11.5709 32.5819 9.13101 30.7829 7.33207C28.984 5.53313 26.5441 4.52249 24 4.52249C21.4559 4.52249 19.016 5.53313 17.2171 7.33207C15.4182 9.13101 14.4075 11.5709 14.4075 14.115V20.7075H10.83L9.33002 22.2075V42L10.83 43.5H37.17L38.67 42V22.2075L37.17 20.7075ZM17.4075 14.115C17.4075 12.3666 18.1021 10.6897 19.3384 9.45339C20.5747 8.21706 22.2516 7.52249 24 7.52249C25.7485 7.52249 27.4253 8.21706 28.6616 9.45339C29.898 10.6897 30.5925 12.3666 30.5925 14.115V20.7075H17.4075V14.115ZM35.67 40.5H12.33V23.7075H35.67V40.5Z" fill="#0055DC"/>
<path d="M24 26.85C23.3462 26.8485 22.7111 27.0683 22.1982 27.4738C21.6852 27.8792 21.3246 28.4463 21.1751 29.0828C21.0255 29.7193 21.0958 30.3876 21.3745 30.9791C21.6532 31.5705 22.1239 32.0502 22.71 32.34V37.05H25.29V32.34C25.8761 32.0502 26.3467 31.5705 26.6255 30.9791C26.9042 30.3876 26.9745 29.7193 26.8249 29.0828C26.6753 28.4463 26.3147 27.8792 25.8018 27.4738C25.2889 27.0683 24.6538 26.8485 24 26.85Z" fill="#0055DC"/>
</svg>
