<svg width="48" height="48" viewBox="0 0 48 48" fill="none" xmlns="http://www.w3.org/2000/svg">
<path d="M12.315 19.995L10.1775 17.8875L7.92751 20.1375C8.78202 16.6044 10.7793 13.4524 13.6092 11.171C16.439 8.88954 19.943 7.60644 23.577 7.52093C27.2109 7.43543 30.7714 8.55231 33.7054 10.6981C36.6394 12.8439 38.7828 15.8985 39.8025 19.3875L42.75 18.5175C41.5339 14.3098 38.9366 10.634 35.3766 8.08243C31.8166 5.53087 27.5013 4.25212 23.1259 4.45223C18.7505 4.65233 14.5699 6.31963 11.2577 9.18548C7.94545 12.0513 5.6945 15.9488 4.86751 20.25L2.54251 17.91L0.412506 19.995L6.41251 25.995L12.315 19.995Z" fill="#0055DC"/>
<path d="M47.565 28.005L41.565 22.005L35.6475 28.005L37.785 30.1125L40.035 27.8625C39.1901 31.401 37.1996 34.561 34.3729 36.8511C31.5462 39.1412 28.0419 40.4329 24.4052 40.5253C20.7684 40.6177 17.2031 39.5056 14.2637 37.362C11.3244 35.2184 9.17594 32.1635 8.1525 28.6725L5.25 29.4825C6.4639 33.6871 9.05688 37.3612 12.6118 39.9136C16.1667 42.466 20.4769 43.7484 24.8489 43.5545C29.221 43.3606 33.4007 41.7016 36.7157 38.8444C40.0306 35.9873 42.2881 32.0981 43.125 27.8025L45.435 30.12L47.565 28.005Z" fill="#0055DC"/>
</svg>
